<svg xmlns="http://www.w3.org/2000/svg" width="966.0000000000001" height="725">
 <!-- Created with Image Occlusion Enhanced -->
 <g>
  <title>Labels</title>
 </g>
 <g>
  <title>Masks</title>
  <ellipse ry="18" rx="18" id="06b58469c33049fd8332a25200139936-ao-1" cy="159.14634" cx="98.63415" stroke="#2D2D2D" fill="#FFEBA2"/>
  <ellipse id="06b58469c33049fd8332a25200139936-ao-2" ry="18" rx="18" cy="89.63414" cx="179.12196" stroke="#2D2D2D" fill="#FFEBA2"/>
  <ellipse id="06b58469c33049fd8332a25200139936-ao-3" ry="18" rx="18" cy="105.4878" cx="216.92684" stroke="#2D2D2D" fill="#FFEBA2"/>
  <ellipse id="06b58469c33049fd8332a25200139936-ao-4" ry="18" rx="18" cy="320.12194" cx="107.17073" stroke="#2D2D2D" fill="#FFEBA2"/>
  <ellipse id="06b58469c33049fd8332a25200139936-ao-5" ry="18" rx="18" cy="401.82926" cx="282.78049" stroke="#2D2D2D" fill="#FFEBA2"/>
  
  <ellipse id="06b58469c33049fd8332a25200139936-ao-7" ry="18" rx="18" cy="526.2195" cx="220.58536" stroke="#2D2D2D" fill="#FFEBA2"/>
  <ellipse id="06b58469c33049fd8332a25200139936-ao-8" ry="18" rx="18" cy="550.60974" cx="126.68292" stroke="#2D2D2D" fill="#FFEBA2"/>
  <ellipse id="06b58469c33049fd8332a25200139936-ao-9" ry="18" rx="18" cy="606.7073" cx="104.7317" stroke="#2D2D2D" fill="#FFEBA2"/>
  <ellipse id="06b58469c33049fd8332a25200139936-ao-10" ry="18" rx="18" cy="629.87804" cx="187.65853" stroke="#2D2D2D" fill="#FFEBA2"/>
  <ellipse id="06b58469c33049fd8332a25200139936-ao-11" ry="18" rx="18" cy="598.17072" cx="320.58536" stroke="#2D2D2D" fill="#FFEBA2"/>
  <ellipse id="06b58469c33049fd8332a25200139936-ao-12" ry="18" rx="18" cy="507.92681" cx="281.56096" stroke="#2D2D2D" fill="#FFEBA2"/>
  <ellipse id="06b58469c33049fd8332a25200139936-ao-13" ry="18" rx="18" cy="506.7073" cx="354.7317" stroke="#2D2D2D" fill="#FFEBA2"/>
  <ellipse id="06b58469c33049fd8332a25200139936-ao-14" ry="18" rx="18" cy="582.31706" cx="458.39023" stroke="#2D2D2D" fill="#FFEBA2"/>
  <ellipse id="06b58469c33049fd8332a25200139936-ao-15" ry="18" rx="18" cy="579.87803" cx="523.02438" stroke="#2D2D2D" fill="#FFEBA2"/>
  <ellipse id="06b58469c33049fd8332a25200139936-ao-16" ry="18" rx="18" cy="634.75608" cx="409.60974" stroke="#2D2D2D" fill="#FFEBA2"/>
  <ellipse id="06b58469c33049fd8332a25200139936-ao-17" ry="18" rx="18" cy="665.24388" cx="447.41462" stroke="#2D2D2D" fill="#FFEBA2"/>
  <ellipse id="06b58469c33049fd8332a25200139936-ao-18" ry="18" rx="18" cy="646.9512" cx="638.87803" stroke="#2D2D2D" fill="#FFEBA2"/>
  <ellipse id="06b58469c33049fd8332a25200139936-ao-19" ry="18" rx="18" cy="509.14632" cx="544.97558" stroke="#2D2D2D" fill="#FFEBA2"/>
  <ellipse id="06b58469c33049fd8332a25200139936-ao-20" ry="18" rx="18" cy="431.09753" cx="405.95119" stroke="#2D2D2D" fill="#FFEBA2"/>
  <ellipse id="06b58469c33049fd8332a25200139936-ao-21" ry="18" rx="18" cy="406.70729" cx="446.19509" stroke="#2D2D2D" fill="#FFEBA2"/>
  <ellipse id="06b58469c33049fd8332a25200139936-ao-22" ry="18" rx="18" cy="318.90241" cx="474.24387" stroke="#2D2D2D" fill="#FFEBA2"/>
  <ellipse id="06b58469c33049fd8332a25200139936-ao-23" ry="18" rx="18" cy="300.60973" cx="433.99996" stroke="#2D2D2D" fill="#FFEBA2"/>
  <ellipse id="06b58469c33049fd8332a25200139936-ao-24" ry="18" rx="18" cy="220.12192" cx="455.95118" stroke="#2D2D2D" fill="#FFEBA2"/>
  <ellipse id="06b58469c33049fd8332a25200139936-ao-25" ry="18" rx="18" cy="370.12192" cx="540.09753" stroke="#2D2D2D" fill="#FFEBA2"/>
  <ellipse id="06b58469c33049fd8332a25200139936-ao-26" ry="18" rx="18" cy="285.97558" cx="651.07314" stroke="#2D2D2D" fill="#FFEBA2"/>
  <ellipse id="06b58469c33049fd8332a25200139936-ao-27" ry="18" rx="18" cy="210.36582" cx="720.58533" stroke="#2D2D2D" fill="#FFEBA2"/>
  <ellipse id="06b58469c33049fd8332a25200139936-ao-28" ry="18" rx="18" cy="322.56095" cx="847.4146" stroke="#2D2D2D" fill="#FFEBA2"/>
  <ellipse id="06b58469c33049fd8332a25200139936-ao-29" ry="18" rx="18" cy="393.29265" cx="758.39021" stroke="#2D2D2D" fill="#FFEBA2"/>
  <ellipse id="06b58469c33049fd8332a25200139936-ao-30" ry="18" rx="18" cy="421.34143" cx="781.56094" stroke="#2D2D2D" fill="#FFEBA2"/>
  <ellipse id="06b58469c33049fd8332a25200139936-ao-31" ry="18" rx="18" cy="453.04875" cx="803.51216" stroke="#2D2D2D" fill="#FFEBA2"/>
  <ellipse id="06b58469c33049fd8332a25200139936-ao-32" ry="18" rx="18" cy="492.07314" cx="698.63411" stroke="#2D2D2D" fill="#FFEBA2"/>
  <ellipse id="06b58469c33049fd8332a25200139936-ao-33" ry="18" rx="18" cy="517.6829" cx="836.43899" stroke="#2D2D2D" fill="#FFEBA2"/>
  <ellipse id="06b58469c33049fd8332a25200139936-ao-34" ry="18" rx="18" cy="483.53655" cx="925.46338" stroke="#2D2D2D" fill="#FFEBA2"/>
 </g>
</svg>