<svg xmlns="http://www.w3.org/2000/svg" width="1200" height="796">
 <!-- Created with Image Occlusion Enhanced -->
 <g>
  <title>Labels</title>
 </g>
 <g>
  <title>Masks</title>
  <ellipse ry="18" rx="18" id="26474f0cae7f40a39d5461693dbdb063-ao-1" cy="321.95454" cx="54.03409" stroke="#2D2D2D" fill="#FFEBA2"/>
  <ellipse id="26474f0cae7f40a39d5461693dbdb063-ao-2" ry="18" rx="18" cy="198.60229" cx="223.29546" stroke="#2D2D2D" fill="#FFEBA2"/>
  <ellipse id="26474f0cae7f40a39d5461693dbdb063-ao-3" ry="18" rx="18" cy="364.79546" cx="217.32955" stroke="#2D2D2D" fill="#FFEBA2"/>
  <ellipse id="26474f0cae7f40a39d5461693dbdb063-ao-4" ry="18" rx="18" cy="703.14774" cx="304.26137" stroke="#2D2D2D" fill="#FFEBA2"/>
  <ellipse id="26474f0cae7f40a39d5461693dbdb063-ao-5" ry="18" rx="18" cy="749.17048" cx="379.26137" stroke="#2D2D2D" fill="#FFEBA2"/>
  <ellipse id="26474f0cae7f40a39d5461693dbdb063-ao-6" ry="18" rx="18" cy="728.71592" cx="559.94319" stroke="#2D2D2D" fill="#FFEBA2"/>
  <ellipse id="26474f0cae7f40a39d5461693dbdb063-ao-7" ry="18" rx="18" cy="694.62501" cx="711.64774" stroke="#2D2D2D" fill="#FFEBA2"/>
  <ellipse id="26474f0cae7f40a39d5461693dbdb063-ao-8" ry="18" rx="18" cy="235.25001" cx="532.67046" stroke="#2D2D2D" fill="#FF7E7E" class="qshape"/>
  <ellipse id="26474f0cae7f40a39d5461693dbdb063-ao-9" ry="18" rx="18" cy="76.72729" cx="494.31818" stroke="#2D2D2D" fill="#FFEBA2"/>
  <ellipse id="26474f0cae7f40a39d5461693dbdb063-ao-10" ry="18" rx="18" cy="189.22728" cx="705.68182" stroke="#2D2D2D" fill="#FFEBA2"/>
  <ellipse id="26474f0cae7f40a39d5461693dbdb063-ao-11" ry="18" rx="18" cy="272.75001" cx="793.46591" stroke="#2D2D2D" fill="#FFEBA2"/>
  <ellipse id="26474f0cae7f40a39d5461693dbdb063-ao-12" ry="18" rx="18" cy="256.55683" cx="1038.92044" stroke="#2D2D2D" fill="#FFEBA2"/>
  <ellipse id="26474f0cae7f40a39d5461693dbdb063-ao-13" ry="18" rx="18" cy="640.93182" cx="1014.20456" stroke="#2D2D2D" fill="#FFEBA2"/>
  <ellipse id="26474f0cae7f40a39d5461693dbdb063-ao-14" ry="18" rx="18" cy="631.55683" cx="1090.9091" stroke="#2D2D2D" fill="#FFEBA2"/>
  <ellipse id="26474f0cae7f40a39d5461693dbdb063-ao-15" ry="18" rx="18" cy="711.67046" cx="1159.94319" stroke="#2D2D2D" fill="#FFEBA2"/>
 </g>
</svg>