<svg xmlns="http://www.w3.org/2000/svg" width="1200" height="960">
 <!-- Created with Image Occlusion Enhanced -->
 <g>
  <title>Labels</title>
 </g>
 <g>
  <title>Masks</title>
  <rect id="41ec39a1fd9c4c39a161d1abf2f30393-ao-1" height="18.53693" width="51.77557" y="92.13066" x="707.38632" stroke="#2D2D2D" fill="#FFEBA2"/>
  <rect stroke="#2D2D2D" id="41ec39a1fd9c4c39a161d1abf2f30393-ao-2" height="20.45454" width="103.55113" y="159.24713" x="708.66475" fill="#FFEBA2"/>
  <rect stroke="#2D2D2D" id="41ec39a1fd9c4c39a161d1abf2f30393-ao-3" height="20.45454" width="76.70454" y="200.15623" x="706.10791" fill="#FFEBA2"/>
  <rect stroke="#2D2D2D" id="41ec39a1fd9c4c39a161d1abf2f30393-ao-4" height="20.45454" width="57.5284" y="228.28123" x="704.82951" fill="#FFEBA2"/>
  <rect stroke="#2D2D2D" id="41ec39a1fd9c4c39a161d1abf2f30393-ao-5" height="20.45454" width="170.66765" y="260.88066" x="706.10794" fill="#FFEBA2"/>
  
  <rect stroke="#2D2D2D" id="41ec39a1fd9c4c39a161d1abf2f30393-ao-7" height="20.45454" width="58.80682" y="256.40623" x="424.2187" fill="#FFEBA2"/>
  <rect stroke="#2D2D2D" id="41ec39a1fd9c4c39a161d1abf2f30393-ao-8" height="20.45454" width="164.91476" y="309.4602" x="243.32382" fill="#FFEBA2"/>
  <rect stroke="#2D2D2D" id="41ec39a1fd9c4c39a161d1abf2f30393-ao-9" height="20.45454" width="138.06817" y="368.90622" x="264.41757" fill="#FFEBA2"/>
  <rect stroke="#2D2D2D" id="41ec39a1fd9c4c39a161d1abf2f30393-ao-10" height="20.45454" width="56.09018" y="428.83165" x="312.35791" fill="#FFEBA2"/>
  <rect id="41ec39a1fd9c4c39a161d1abf2f30393-ao-11" stroke="#2D2D2D" height="20.45454" width="56.09018" y="498.34515" x="353.5866" fill="#FFEBA2"/>
  <rect stroke="#2D2D2D" id="41ec39a1fd9c4c39a161d1abf2f30393-ao-12" height="20.45454" width="86.772" y="529.50637" x="357.42182" fill="#FFEBA2"/>
  <rect stroke="#2D2D2D" id="41ec39a1fd9c4c39a161d1abf2f30393-ao-13" height="20.45454" width="62.80183" y="562.1058" x="364.13347" fill="#FFEBA2"/>
  <rect stroke="#2D2D2D" id="41ec39a1fd9c4c39a161d1abf2f30393-ao-14" height="20.45454" width="111.22158" y="593.26702" x="351.66899" fill="#FFEBA2"/>
  <rect stroke="#2D2D2D" id="41ec39a1fd9c4c39a161d1abf2f30393-ao-15" height="20.45454" width="110.74217" y="622.99003" x="347.35436" fill="#FFEBA2"/>
  <rect stroke="#2D2D2D" id="41ec39a1fd9c4c39a161d1abf2f30393-ao-16" height="20.45454" width="55.61079" y="655.58947" x="361.25706" fill="#FFEBA2"/>
  <rect stroke="#2D2D2D" id="41ec39a1fd9c4c39a161d1abf2f30393-ao-17" height="20.45454" width="101.15412" y="781.67256" x="415.90905" fill="#FFEBA2"/>
  <rect stroke="#2D2D2D" id="41ec39a1fd9c4c39a161d1abf2f30393-ao-18" height="20.45454" width="69.0341" y="827.21589" x="472.95806" fill="#FFEBA2"/>
  <rect stroke="#2D2D2D" id="41ec39a1fd9c4c39a161d1abf2f30393-ao-19" height="20.45454" width="45.54334" y="836.32455" x="660.40481" fill="#FFEBA2"/>
  <rect stroke="#2D2D2D" id="41ec39a1fd9c4c39a161d1abf2f30393-ao-20" height="20.45454" width="74.78695" y="808.51915" x="678.62215" fill="#FFEBA2"/>
  <rect stroke="#2D2D2D" id="41ec39a1fd9c4c39a161d1abf2f30393-ao-21" height="20.45454" width="103.55114" y="366.98861" x="729.75851" fill="#FFEBA2"/>
  <rect stroke="#2D2D2D" id="41ec39a1fd9c4c39a161d1abf2f30393-ao-22" height="20.45454" width="66.47728" y="395.75281" x="745.73862" fill="#FFEBA2"/>
  <rect stroke="#2D2D2D" id="41ec39a1fd9c4c39a161d1abf2f30393-ao-23" height="20.45454" width="80.53978" y="501.86077" x="767.47158" fill="#FFEBA2"/>
  <rect stroke="#2D2D2D" id="41ec39a1fd9c4c39a161d1abf2f30393-ao-24" height="20.45454" width="63.92046" y="548.5227" x="766.83238" fill="#FFEBA2"/>
  <rect stroke="#2D2D2D" id="41ec39a1fd9c4c39a161d1abf2f30393-ao-25" height="20.45454" width="88.84944" y="590.071" x="770.02841" fill="#FFEBA2"/>
  <rect stroke="#2D2D2D" id="41ec39a1fd9c4c39a161d1abf2f30393-ao-26" height="20.45454" width="134.87217" y="630.34088" x="768.1108" fill="#FFEBA2"/>
  <rect stroke="#2D2D2D" id="41ec39a1fd9c4c39a161d1abf2f30393-ao-27" height="20.45454" width="134.23296" y="687.86929" x="768.1108" fill="#FFEBA2"/>
 </g>
</svg>