<svg xmlns="http://www.w3.org/2000/svg" width="1200" height="854">
 <!-- Created with Image Occlusion Enhanced -->
 <g>
  <title>Labels</title>
 </g>
 <g>
  <title>Masks</title>
  <ellipse ry="18" rx="18" id="49392fe623154f04ab5f93ba72b5823e-ao-1" cy="30.01988" cx="524.89347" stroke="#2D2D2D" fill="#FFEBA2"/>
  <ellipse id="49392fe623154f04ab5f93ba72b5823e-ao-2" ry="18" rx="18" cy="59.7429" cx="413.67188" stroke="#2D2D2D" fill="#FFEBA2"/>
  <ellipse id="49392fe623154f04ab5f93ba72b5823e-ao-3" ry="18" rx="18" cy="123.98295" cx="437.64205" stroke="#2D2D2D" fill="#FFEBA2"/>
  <ellipse id="49392fe623154f04ab5f93ba72b5823e-ao-4" ry="18" rx="18" cy="216.98721" cx="502.84091" stroke="#2D2D2D" fill="#FFEBA2"/>
  <ellipse id="49392fe623154f04ab5f93ba72b5823e-ao-5" ry="18" rx="18" cy="210.27556" cx="734.87217" stroke="#2D2D2D" fill="#FFEBA2"/>
  <ellipse id="49392fe623154f04ab5f93ba72b5823e-ao-6" ry="18" rx="18" cy="310.95028" cx="573.79263" stroke="#2D2D2D" fill="#FFEBA2"/>
  <ellipse id="49392fe623154f04ab5f93ba72b5823e-ao-7" ry="18" rx="18" cy="362.72585" cx="477.91195" stroke="#2D2D2D" fill="#FFEBA2"/>
  <ellipse id="49392fe623154f04ab5f93ba72b5823e-ao-8" ry="18" rx="18" cy="448.05966" cx="624.60939" stroke="#2D2D2D" fill="#FFEBA2"/>
  <ellipse id="49392fe623154f04ab5f93ba72b5823e-ao-9" ry="18" rx="18" cy="510.3821" cx="240.12784" stroke="#2D2D2D" fill="#FFEBA2"/>
  <ellipse id="49392fe623154f04ab5f93ba72b5823e-ao-10" ry="18" rx="18" cy="738.57812" cx="159.58807" stroke="#2D2D2D" fill="#FFEBA2"/>
  <ellipse id="49392fe623154f04ab5f93ba72b5823e-ao-11" ry="18" rx="18" cy="812.40624" cx="320.66762" stroke="#2D2D2D" fill="#FFEBA2"/>
  <ellipse id="49392fe623154f04ab5f93ba72b5823e-ao-12" ry="18" rx="18" cy="821.0355" cx="449.14773" stroke="#2D2D2D" fill="#FFEBA2"/>
  <ellipse id="49392fe623154f04ab5f93ba72b5823e-ao-13" ry="18" rx="18" cy="689.67897" cx="532.56392" stroke="#2D2D2D" fill="#FFEBA2"/>
  <ellipse id="49392fe623154f04ab5f93ba72b5823e-ao-14" ry="18" rx="18" cy="589.00425" cx="475.99432" stroke="#2D2D2D" fill="#FFEBA2"/>
  <ellipse id="49392fe623154f04ab5f93ba72b5823e-ao-15" ry="18" rx="18" cy="564.07528" cx="537.35795" stroke="#2D2D2D" fill="#FFEBA2"/>
  <ellipse id="49392fe623154f04ab5f93ba72b5823e-ao-16" ry="18" rx="18" cy="587.08664" cx="686.93183" stroke="#2D2D2D" fill="#FFEBA2"/>
  <ellipse id="49392fe623154f04ab5f93ba72b5823e-ao-17" ry="18" rx="18" cy="663.79118" cx="728.16052" stroke="#2D2D2D" fill="#FFEBA2"/>
  <ellipse id="49392fe623154f04ab5f93ba72b5823e-ao-18" ry="18" rx="18" cy="619.68607" cx="793.35938" stroke="#2D2D2D" fill="#FFEBA2"/>
  <ellipse id="49392fe623154f04ab5f93ba72b5823e-ao-19" ry="18" rx="18" cy="682.96732" cx="865.26989" stroke="#2D2D2D" fill="#FFEBA2"/>
  
 </g>
</svg>