<svg xmlns="http://www.w3.org/2000/svg" width="1200" height="751">
 <!-- Created with Image Occlusion Enhanced -->
 <g>
  <title>Labels</title>
 </g>
 <g>
  <title>Masks</title>
  <ellipse ry="18" rx="18" id="64a09ba7800e4d248aa5aeed261c45d2-ao-1" cy="459.01419" cx="56.99575" stroke="#2D2D2D" fill="#FFEBA2"/>
  <ellipse id="64a09ba7800e4d248aa5aeed261c45d2-ao-2" ry="18" rx="18" cy="575.02982" cx="63.70739" stroke="#2D2D2D" fill="#FFEBA2"/>
  <ellipse id="64a09ba7800e4d248aa5aeed261c45d2-ao-3" ry="18" rx="18" cy="562.56534" cx="139.45313" stroke="#2D2D2D" fill="#FFEBA2"/>
  <ellipse id="64a09ba7800e4d248aa5aeed261c45d2-ao-4" ry="18" rx="18" cy="704.46874" cx="77.13069" stroke="#2D2D2D" fill="#FFEBA2"/>
  <ellipse id="64a09ba7800e4d248aa5aeed261c45d2-ao-5" ry="18" rx="18" cy="614.3409" cx="230.53978" stroke="#2D2D2D" fill="#FFEBA2"/>
  <ellipse id="64a09ba7800e4d248aa5aeed261c45d2-ao-6" ry="18" rx="18" cy="452.30255" cx="229.58097" stroke="#2D2D2D" fill="#FFEBA2"/>
  <ellipse id="64a09ba7800e4d248aa5aeed261c45d2-ao-7" ry="18" rx="18" cy="653.65198" cx="396.41336" stroke="#2D2D2D" fill="#FFEBA2"/>
  <ellipse id="64a09ba7800e4d248aa5aeed261c45d2-ao-8" ry="18" rx="18" cy="702.55112" cx="571.875" stroke="#2D2D2D" fill="#FFEBA2"/>
  <ellipse id="64a09ba7800e4d248aa5aeed261c45d2-ao-9" ry="18" rx="18" cy="574.07101" cx="482.70597" stroke="#2D2D2D" fill="#FFEBA2"/>
  <ellipse id="64a09ba7800e4d248aa5aeed261c45d2-ao-10" ry="18" rx="18" cy="529.96589" cx="480.78835" stroke="#2D2D2D" fill="#FFEBA2"/>
  <ellipse id="64a09ba7800e4d248aa5aeed261c45d2-ao-11" ry="18" rx="18" cy="483.94316" cx="478.87074" stroke="#2D2D2D" fill="#FFEBA2"/>
  <ellipse id="64a09ba7800e4d248aa5aeed261c45d2-ao-12" ry="18" rx="18" cy="449.42611" cx="541.19318" stroke="#2D2D2D" fill="#FFEBA2"/>
  <ellipse id="64a09ba7800e4d248aa5aeed261c45d2-ao-13" ry="18" rx="18" cy="447.5085" cx="582.42188" stroke="#2D2D2D" fill="#FFEBA2"/>
  <ellipse id="64a09ba7800e4d248aa5aeed261c45d2-ao-14" ry="18" rx="18" cy="100.42042" cx="528.7287" stroke="#2D2D2D" fill="#FFEBA2"/>
  <ellipse id="64a09ba7800e4d248aa5aeed261c45d2-ao-15" ry="18" rx="18" cy="85.07951" cx="750.21308" stroke="#2D2D2D" fill="#FFEBA2"/>
  <ellipse id="64a09ba7800e4d248aa5aeed261c45d2-ao-16" ry="18" rx="18" cy="329.57525" cx="651.45597" stroke="#2D2D2D" fill="#FFEBA2"/>
  <ellipse id="64a09ba7800e4d248aa5aeed261c45d2-ao-17" ry="18" rx="18" cy="326.69883" cx="715.69602" stroke="#2D2D2D" fill="#FFEBA2"/>
  <ellipse id="64a09ba7800e4d248aa5aeed261c45d2-ao-18" ry="18" rx="18" cy="463.80821" cx="653.37358" stroke="#2D2D2D" fill="#FFEBA2"/>
  <ellipse id="64a09ba7800e4d248aa5aeed261c45d2-ao-19" ry="18" rx="18" cy="479.14912" cx="703.23153" stroke="#2D2D2D" fill="#FFEBA2"/>
  <ellipse id="64a09ba7800e4d248aa5aeed261c45d2-ao-20" ry="18" rx="18" cy="600.91759" cx="685.97301" stroke="#2D2D2D" fill="#FFEBA2"/>
  <ellipse id="64a09ba7800e4d248aa5aeed261c45d2-ao-21" ry="18" rx="18" cy="575.98861" cx="743.50142" stroke="#2D2D2D" fill="#FFEBA2"/>
  <ellipse id="64a09ba7800e4d248aa5aeed261c45d2-ao-22" ry="18" rx="18" cy="551.05963" cx="781.85369" stroke="#2D2D2D" fill="#FFEBA2"/>
  <ellipse id="64a09ba7800e4d248aa5aeed261c45d2-ao-23" ry="18" rx="18" cy="524.21304" cx="881.5696" stroke="#2D2D2D" fill="#FF7E7E" class="qshape"/>
  <ellipse id="64a09ba7800e4d248aa5aeed261c45d2-ao-24" ry="18" rx="18" cy="441.75565" cx="844.17613" stroke="#2D2D2D" fill="#FFEBA2"/>
  <ellipse id="64a09ba7800e4d248aa5aeed261c45d2-ao-25" ry="18" rx="18" cy="519.41901" cx="1119.3537" stroke="#2D2D2D" fill="#FFEBA2"/>
 </g>
</svg>