<svg xmlns="http://www.w3.org/2000/svg" width="1036" height="748">
 <!-- Created with Image Occlusion Enhanced -->
 <g>
  <title>Labels</title>
 </g>
 <g>
  <title>Masks</title>
  <ellipse ry="18" rx="18" id="6970e499b25646b3827dc056e4137e1a-ao-1" cy="37.52632" cx="241.96049" stroke="#2D2D2D" fill="#FFEBA2"/>
  <ellipse id="6970e499b25646b3827dc056e4137e1a-ao-2" ry="18" rx="18" cy="206.27631" cx="223.21049" stroke="#2D2D2D" fill="#FFEBA2"/>
  <ellipse id="6970e499b25646b3827dc056e4137e1a-ao-3" ry="18" rx="18" cy="357.26316" cx="169.92102" stroke="#2D2D2D" fill="#FFEBA2"/>
  <ellipse id="6970e499b25646b3827dc056e4137e1a-ao-4" ry="18" rx="18" cy="394.76316" cx="149.19733" stroke="#2D2D2D" fill="#FFEBA2"/>
  <ellipse id="6970e499b25646b3827dc056e4137e1a-ao-5" ry="18" rx="18" cy="452.98684" cx="53.47365" stroke="#2D2D2D" fill="#FFEBA2"/>
  <ellipse id="6970e499b25646b3827dc056e4137e1a-ao-6" ry="18" rx="18" cy="499.36842" cx="36.69733" stroke="#2D2D2D" fill="#FFEBA2"/>
  <ellipse id="6970e499b25646b3827dc056e4137e1a-ao-7" ry="18" rx="18" cy="599.03947" cx="30.77628" stroke="#2D2D2D" fill="#FFEBA2"/>
  <ellipse id="6970e499b25646b3827dc056e4137e1a-ao-8" ry="18" rx="18" cy="505.28947" cx="195.57892" stroke="#2D2D2D" fill="#FFEBA2"/>
  <ellipse id="6970e499b25646b3827dc056e4137e1a-ao-9" ry="18" rx="18" cy="466.80263" cx="221.23681" stroke="#2D2D2D" fill="#FFEBA2"/>
  <ellipse id="6970e499b25646b3827dc056e4137e1a-ao-10" ry="18" rx="18" cy="527.98684" cx="256.76313" stroke="#2D2D2D" fill="#FFEBA2"/>
  <ellipse id="6970e499b25646b3827dc056e4137e1a-ao-11" ry="18" rx="18" cy="563.51315" cx="241.96049" stroke="#2D2D2D" fill="#FFEBA2"/>
  <ellipse id="6970e499b25646b3827dc056e4137e1a-ao-12" ry="18" rx="18" cy="571.40789" cx="283.40786" stroke="#2D2D2D" fill="#FFEBA2"/>
  <ellipse id="6970e499b25646b3827dc056e4137e1a-ao-13" ry="18" rx="18" cy="480.61842" cx="310.0526" stroke="#2D2D2D" fill="#FFEBA2"/>
  <ellipse id="6970e499b25646b3827dc056e4137e1a-ao-14" ry="18" rx="18" cy="616.80263" cx="347.5526" stroke="#2D2D2D" fill="#FFEBA2"/>
  <ellipse id="6970e499b25646b3827dc056e4137e1a-ao-15" ry="18" rx="18" cy="506.27632" cx="415.6447" stroke="#2D2D2D" fill="#FFEBA2"/>
  <ellipse id="6970e499b25646b3827dc056e4137e1a-ao-16" ry="18" rx="18" cy="479.63158" cx="531.10523" stroke="#2D2D2D" fill="#FFEBA2"/>
  <ellipse id="6970e499b25646b3827dc056e4137e1a-ao-17" ry="18" rx="18" cy="611.86842" cx="618.93417" stroke="#2D2D2D" fill="#FFEBA2"/>
  <ellipse id="6970e499b25646b3827dc056e4137e1a-ao-18" ry="18" rx="18" cy="516.14474" cx="671.2368" stroke="#2D2D2D" fill="#FFEBA2"/>
  <ellipse id="6970e499b25646b3827dc056e4137e1a-ao-19" ry="18" rx="18" cy="473.71052" cx="699.85522" stroke="#2D2D2D" fill="#FFEBA2"/>
  <ellipse id="6970e499b25646b3827dc056e4137e1a-ao-20" ry="18" rx="18" cy="350.35526" cx="637.68416" stroke="#2D2D2D" fill="#FFEBA2"/>
  
  <ellipse id="6970e499b25646b3827dc056e4137e1a-ao-22" ry="18" rx="18" cy="105.61841" cx="907.09206" stroke="#2D2D2D" fill="#FFEBA2"/>
  <ellipse id="6970e499b25646b3827dc056e4137e1a-ao-23" ry="18" rx="18" cy="321.73683" cx="814.3289" stroke="#2D2D2D" fill="#FFEBA2"/>
  <ellipse id="6970e499b25646b3827dc056e4137e1a-ao-24" ry="18" rx="18" cy="355.28946" cx="848.86838" stroke="#2D2D2D" fill="#FFEBA2"/>
  <ellipse id="6970e499b25646b3827dc056e4137e1a-ao-25" ry="18" rx="18" cy="358.24998" cx="753.14469" stroke="#2D2D2D" fill="#FFEBA2"/>
  <ellipse id="6970e499b25646b3827dc056e4137e1a-ao-26" ry="18" rx="18" cy="409.56577" cx="796.56574" stroke="#2D2D2D" fill="#FFEBA2"/>
  <ellipse id="6970e499b25646b3827dc056e4137e1a-ao-27" ry="18" rx="18" cy="444.10525" cx="854.78943" stroke="#2D2D2D" fill="#FFEBA2"/>
  <ellipse id="6970e499b25646b3827dc056e4137e1a-ao-28" ry="18" rx="18" cy="384.89471" cx="927.81574" stroke="#2D2D2D" fill="#FFEBA2"/>
  <ellipse id="6970e499b25646b3827dc056e4137e1a-ao-29" ry="18" rx="18" cy="442.13156" cx="936.69732" stroke="#2D2D2D" fill="#FFEBA2"/>
  <ellipse id="6970e499b25646b3827dc056e4137e1a-ao-30" ry="18" rx="18" cy="285.22365" cx="1002.81574" stroke="#2D2D2D" fill="#FFEBA2"/>
  <ellipse id="6970e499b25646b3827dc056e4137e1a-ao-31" ry="18" rx="18" cy="354.3026" cx="1005.77627" stroke="#2D2D2D" fill="#FFEBA2"/>
  <ellipse id="6970e499b25646b3827dc056e4137e1a-ao-32" ry="18" rx="18" cy="460.88155" cx="982.09205" stroke="#2D2D2D" fill="#FFEBA2"/>
  <ellipse id="6970e499b25646b3827dc056e4137e1a-ao-33" ry="18" rx="18" cy="532.92102" cx="913.99995" stroke="#2D2D2D" fill="#FFEBA2"/>
  <ellipse id="6970e499b25646b3827dc056e4137e1a-ao-34" ry="18" rx="18" cy="625.68418" cx="963.34205" stroke="#2D2D2D" fill="#FFEBA2"/>
 </g>
</svg>