<svg xmlns="http://www.w3.org/2000/svg" width="1071" height="725">
 <!-- Created with Image Occlusion Enhanced -->
 <g>
  <title>Labels</title>
 </g>
 <g>
  <title>Masks</title>
  <ellipse ry="18" rx="18" id="8f4a5a9c379d4a0d986265438e534992-ao-1" cy="212.50003" cx="36.7703" stroke="#2D2D2D" fill="#FFEBA2"/>
  <ellipse id="8f4a5a9c379d4a0d986265438e534992-ao-2" ry="18" rx="18" cy="296.62165" cx="151.29733" stroke="#2D2D2D" fill="#FFEBA2"/>
  <ellipse id="8f4a5a9c379d4a0d986265438e534992-ao-3" ry="18" rx="18" cy="370.60814" cx="37.78382" stroke="#2D2D2D" fill="#FFEBA2"/>
  <ellipse id="8f4a5a9c379d4a0d986265438e534992-ao-4" ry="18" rx="18" cy="566.21625" cx="110.75679" stroke="#2D2D2D" fill="#FFEBA2"/>
  <ellipse id="8f4a5a9c379d4a0d986265438e534992-ao-5" ry="18" rx="18" cy="631.08112" cx="373.2568" stroke="#2D2D2D" fill="#FFEBA2"/>
  <ellipse id="8f4a5a9c379d4a0d986265438e534992-ao-6" ry="18" rx="18" cy="429.39191" cx="241.50003" stroke="#2D2D2D" fill="#FF7E7E" class="qshape"/>
  <ellipse id="8f4a5a9c379d4a0d986265438e534992-ao-7" ry="18" rx="18" cy="105.06758" cx="385.41895" stroke="#2D2D2D" fill="#FFEBA2"/>
  <ellipse id="8f4a5a9c379d4a0d986265438e534992-ao-8" ry="18" rx="18" cy="43.24325" cx="547.58111" stroke="#2D2D2D" fill="#FFEBA2"/>
  <ellipse id="8f4a5a9c379d4a0d986265438e534992-ao-9" ry="18" rx="18" cy="27.02703" cx="722.91895" stroke="#2D2D2D" fill="#FFEBA2"/>
  <ellipse id="8f4a5a9c379d4a0d986265438e534992-ao-10" ry="18" rx="18" cy="171.95946" cx="632.71624" stroke="#2D2D2D" fill="#FFEBA2"/>
  <ellipse id="8f4a5a9c379d4a0d986265438e534992-ao-11" ry="18" rx="18" cy="268.24325" cx="506.02705" stroke="#2D2D2D" fill="#FFEBA2"/>
  <ellipse id="8f4a5a9c379d4a0d986265438e534992-ao-12" ry="18" rx="18" cy="248.9865" cx="683.39193" stroke="#2D2D2D" fill="#FFEBA2"/>
  <ellipse id="8f4a5a9c379d4a0d986265438e534992-ao-13" ry="18" rx="18" cy="260.13514" cx="753.32436" stroke="#2D2D2D" fill="#FFEBA2"/>
  <ellipse id="8f4a5a9c379d4a0d986265438e534992-ao-14" ry="18" rx="18" cy="247.97298" cx="811.09463" stroke="#2D2D2D" fill="#FFEBA2"/>
  <ellipse id="8f4a5a9c379d4a0d986265438e534992-ao-15" ry="18" rx="18" cy="276.35136" cx="863.79733" stroke="#2D2D2D" fill="#FFEBA2"/>
  <ellipse id="8f4a5a9c379d4a0d986265438e534992-ao-16" ry="18" rx="18" cy="253.04054" cx="924.60814" stroke="#2D2D2D" fill="#FFEBA2"/>
  <ellipse id="8f4a5a9c379d4a0d986265438e534992-ao-17" ry="18" rx="18" cy="382.77028" cx="916.50003" stroke="#2D2D2D" fill="#FFEBA2"/>
  <ellipse id="8f4a5a9c379d4a0d986265438e534992-ao-18" ry="18" rx="18" cy="370.60811" cx="816.16219" stroke="#2D2D2D" fill="#FFEBA2"/>
  <ellipse id="8f4a5a9c379d4a0d986265438e534992-ao-19" ry="18" rx="18" cy="321.95946" cx="789.81084" stroke="#2D2D2D" fill="#FFEBA2"/>
  <ellipse id="8f4a5a9c379d4a0d986265438e534992-ao-20" ry="18" rx="18" cy="496.28379" cx="546.56759" stroke="#2D2D2D" fill="#FFEBA2"/>
  <ellipse id="8f4a5a9c379d4a0d986265438e534992-ao-21" ry="18" rx="18" cy="692.90541" cx="544.54056" stroke="#2D2D2D" fill="#FFEBA2"/>
  <ellipse id="8f4a5a9c379d4a0d986265438e534992-ao-22" ry="18" rx="18" cy="685.81081" cx="707.71624" stroke="#2D2D2D" fill="#FFEBA2"/>
  <ellipse id="8f4a5a9c379d4a0d986265438e534992-ao-23" ry="18" rx="18" cy="631.08108" cx="675.2838" stroke="#2D2D2D" fill="#FFEBA2"/>
  <ellipse id="8f4a5a9c379d4a0d986265438e534992-ao-24" ry="18" rx="18" cy="524.66216" cx="655.01353" stroke="#2D2D2D" fill="#FFEBA2"/>
  <ellipse id="8f4a5a9c379d4a0d986265438e534992-ao-25" ry="18" rx="18" cy="528.71621" cx="720.89191" stroke="#2D2D2D" fill="#FFEBA2"/>
  <ellipse id="8f4a5a9c379d4a0d986265438e534992-ao-26" ry="18" rx="18" cy="534.79729" cx="777.64867" stroke="#2D2D2D" fill="#FFEBA2"/>
 </g>
</svg>