<svg xmlns="http://www.w3.org/2000/svg" width="1200" height="852">
 <!-- Created with Image Occlusion Enhanced -->
 <g>
  <title>Labels</title>
 </g>
 <g>
  <title>Masks</title>
  <ellipse ry="18" rx="18" id="9c7665dfd4f7487099cd34d75e31492f-ao-1" cy="267.58762" cx="225.77319" stroke="#2D2D2D" fill="#FFEBA2"/>
  <ellipse id="9c7665dfd4f7487099cd34d75e31492f-ao-2" ry="18" rx="18" cy="469.64949" cx="184.53607" stroke="#2D2D2D" fill="#FFEBA2"/>
  <ellipse id="9c7665dfd4f7487099cd34d75e31492f-ao-3" ry="18" rx="18" cy="523.25774" cx="38.14435" stroke="#2D2D2D" fill="#FFEBA2"/>
  <ellipse id="9c7665dfd4f7487099cd34d75e31492f-ao-4" ry="18" rx="18" cy="588.2062" cx="204.12369" stroke="#2D2D2D" fill="#FFEBA2"/>
  <ellipse id="9c7665dfd4f7487099cd34d75e31492f-ao-5" ry="18" rx="18" cy="704.70103" cx="162.8866" stroke="#2D2D2D" fill="#FFEBA2"/>
  <ellipse id="9c7665dfd4f7487099cd34d75e31492f-ao-6" ry="18" rx="18" cy="648.00001" cx="276.28864" stroke="#2D2D2D" fill="#FFEBA2"/>
  <ellipse id="9c7665dfd4f7487099cd34d75e31492f-ao-7" ry="18" rx="18" cy="408.82475" cx="309.27835" stroke="#2D2D2D" fill="#FFEBA2"/>
  <ellipse id="9c7665dfd4f7487099cd34d75e31492f-ao-8" ry="18" rx="18" cy="245.93815" cx="371.13402" stroke="#2D2D2D" fill="#FFEBA2"/>
  <ellipse id="9c7665dfd4f7487099cd34d75e31492f-ao-9" ry="18" rx="18" cy="425.3196" cx="405.15464" stroke="#2D2D2D" fill="#FF7E7E" class="qshape"/>
  <ellipse id="9c7665dfd4f7487099cd34d75e31492f-ao-10" ry="18" rx="18" cy="203.67012" cx="540.20618" stroke="#2D2D2D" fill="#FFEBA2"/>
  <ellipse id="9c7665dfd4f7487099cd34d75e31492f-ao-11" ry="18" rx="18" cy="462.43301" cx="710.30928" stroke="#2D2D2D" fill="#FFEBA2"/>
  <ellipse id="9c7665dfd4f7487099cd34d75e31492f-ao-12" ry="18" rx="18" cy="562.43301" cx="787.62887" stroke="#2D2D2D" fill="#FFEBA2"/>
  <ellipse id="9c7665dfd4f7487099cd34d75e31492f-ao-13" ry="18" rx="18" cy="201.60827" cx="1083.50515" stroke="#2D2D2D" fill="#FFEBA2"/>
  <ellipse id="9c7665dfd4f7487099cd34d75e31492f-ao-14" ry="18" rx="18" cy="415.01034" cx="1043.29897" stroke="#2D2D2D" fill="#FFEBA2"/>
  <ellipse id="9c7665dfd4f7487099cd34d75e31492f-ao-15" ry="18" rx="18" cy="495.42271" cx="1038.14433" stroke="#2D2D2D" fill="#FFEBA2"/>
  <ellipse id="9c7665dfd4f7487099cd34d75e31492f-ao-16" ry="18" rx="18" cy="584.0825" cx="990.72165" stroke="#2D2D2D" fill="#FFEBA2"/>
  <ellipse id="9c7665dfd4f7487099cd34d75e31492f-ao-17" ry="18" rx="18" cy="798.5155" cx="875.25773" stroke="#2D2D2D" fill="#FFEBA2"/>
  <ellipse id="9c7665dfd4f7487099cd34d75e31492f-ao-18" ry="18" rx="18" cy="637.69076" cx="1035.05155" stroke="#2D2D2D" fill="#FFEBA2"/>
  <ellipse id="9c7665dfd4f7487099cd34d75e31492f-ao-19" ry="18" rx="18" cy="543.87632" cx="1063.91753" stroke="#2D2D2D" fill="#FFEBA2"/>
  <ellipse id="9c7665dfd4f7487099cd34d75e31492f-ao-20" ry="18" rx="18" cy="607.79385" cx="1103.09279" stroke="#2D2D2D" fill="#FFEBA2"/>
  <ellipse id="9c7665dfd4f7487099cd34d75e31492f-ao-21" ry="18" rx="18" cy="399.54643" cx="1159.79382" stroke="#2D2D2D" fill="#FFEBA2"/>
  <ellipse id="9c7665dfd4f7487099cd34d75e31492f-ao-22" ry="18" rx="18" cy="486.14436" cx="1160.82475" stroke="#2D2D2D" fill="#FFEBA2"/>
  <ellipse id="9c7665dfd4f7487099cd34d75e31492f-ao-23" ry="18" rx="18" cy="810.88664" cx="1124.74227" stroke="#2D2D2D" fill="#FFEBA2"/>
 </g>
</svg>