<svg xmlns="http://www.w3.org/2000/svg" width="1200" height="828">
 <!-- Created with Image Occlusion Enhanced -->
 <g>
  <title>Labels</title>
 </g>
 <g>
  <title>Masks</title>
  <ellipse id="ab4e078253e948b1a80035f6c5f9fff6-ao-1" ry="18" rx="18" cy="543.26867" cx="78.35822" stroke="#2D2D2D" fill="#FFEBA2"/>
  <ellipse id="ab4e078253e948b1a80035f6c5f9fff6-ao-2" ry="18" rx="18" cy="485.05971" cx="189.17911" stroke="#2D2D2D" fill="#FFEBA2"/>
  <ellipse id="ab4e078253e948b1a80035f6c5f9fff6-ao-3" ry="18" rx="18" cy="380.95523" cx="240.67165" stroke="#2D2D2D" fill="#FFEBA2"/>
  <ellipse id="ab4e078253e948b1a80035f6c5f9fff6-ao-4" ry="18" rx="18" cy="508.56718" cx="254.10449" stroke="#2D2D2D" fill="#FF7E7E" class="qshape"/>
  <ellipse id="ab4e078253e948b1a80035f6c5f9fff6-ao-5" ry="18" rx="18" cy="562.29852" cx="331.34329" stroke="#2D2D2D" fill="#FFEBA2"/>
  <ellipse id="ab4e078253e948b1a80035f6c5f9fff6-ao-6" ry="18" rx="18" cy="604.83584" cx="331.34329" stroke="#2D2D2D" fill="#FFEBA2"/>
  <ellipse id="ab4e078253e948b1a80035f6c5f9fff6-ao-7" ry="18" rx="18" cy="786.17913" cx="344.77613" stroke="#2D2D2D" fill="#FFEBA2"/>
  <ellipse id="ab4e078253e948b1a80035f6c5f9fff6-ao-8" ry="18" rx="18" cy="630.58211" cx="434.32837" stroke="#2D2D2D" fill="#FFEBA2"/>
  <ellipse id="ab4e078253e948b1a80035f6c5f9fff6-ao-9" ry="18" rx="18" cy="494.01494" cx="367.16419" stroke="#2D2D2D" fill="#FFEBA2"/>
  <ellipse id="ab4e078253e948b1a80035f6c5f9fff6-ao-10" ry="18" rx="18" cy="363.04478" cx="347.01493" stroke="#2D2D2D" fill="#FFEBA2"/>
  <ellipse id="ab4e078253e948b1a80035f6c5f9fff6-ao-11" ry="18" rx="18" cy="320.50746" cx="343.65672" stroke="#2D2D2D" fill="#FFEBA2"/>
  <ellipse id="ab4e078253e948b1a80035f6c5f9fff6-ao-12" ry="18" rx="18" cy="207.44775" cx="544.02986" stroke="#2D2D2D" fill="#FFEBA2"/>
  <ellipse id="ab4e078253e948b1a80035f6c5f9fff6-ao-13" ry="18" rx="18" cy="565.65671" cx="633.58209" stroke="#2D2D2D" fill="#FFEBA2"/>
  <ellipse id="ab4e078253e948b1a80035f6c5f9fff6-ao-14" ry="18" rx="18" cy="616.02984" cx="669.40299" stroke="#2D2D2D" fill="#FFEBA2"/>
  <ellipse id="ab4e078253e948b1a80035f6c5f9fff6-ao-15" ry="18" rx="18" cy="612.67163" cx="756.71643" stroke="#2D2D2D" fill="#FFEBA2"/>
  <ellipse id="ab4e078253e948b1a80035f6c5f9fff6-ao-16" ry="18" rx="18" cy="599.2388" cx="823.88061" stroke="#2D2D2D" fill="#FFEBA2"/>
  <ellipse id="ab4e078253e948b1a80035f6c5f9fff6-ao-17" ry="18" rx="18" cy="530.95521" cx="760.07463" stroke="#2D2D2D" fill="#FFEBA2"/>
  <ellipse id="ab4e078253e948b1a80035f6c5f9fff6-ao-18" ry="18" rx="18" cy="284.68656" cx="758.95523" stroke="#2D2D2D" fill="#FFEBA2"/>
  <ellipse id="ab4e078253e948b1a80035f6c5f9fff6-ao-19" ry="18" rx="18" cy="397.74627" cx="883.20896" stroke="#2D2D2D" fill="#FFEBA2"/>
  <ellipse id="ab4e078253e948b1a80035f6c5f9fff6-ao-20" ry="18" rx="18" cy="412.2985" cx="1056.71642" stroke="#2D2D2D" fill="#FFEBA2"/>
  <ellipse id="ab4e078253e948b1a80035f6c5f9fff6-ao-21" ry="18" rx="18" cy="545.50746" cx="976.1194" stroke="#2D2D2D" fill="#FFEBA2"/>
  <ellipse id="ab4e078253e948b1a80035f6c5f9fff6-ao-22" ry="18" rx="18" cy="510.80597" cx="1070.14925" stroke="#2D2D2D" fill="#FFEBA2"/>
  <ellipse id="ab4e078253e948b1a80035f6c5f9fff6-ao-23" ry="18" rx="18" cy="607.07463" cx="1016.41791" stroke="#2D2D2D" fill="#FFEBA2"/>
  <ellipse id="ab4e078253e948b1a80035f6c5f9fff6-ao-24" ry="18" rx="18" cy="802.97015" cx="944.77612" stroke="#2D2D2D" fill="#FFEBA2"/>
  <ellipse id="ab4e078253e948b1a80035f6c5f9fff6-ao-25" ry="18" rx="18" cy="710.0597" cx="1041.04478" stroke="#2D2D2D" fill="#FFEBA2"/>
  <ellipse id="ab4e078253e948b1a80035f6c5f9fff6-ao-26" ry="18" rx="18" cy="658.56716" cx="1146.26866" stroke="#2D2D2D" fill="#FFEBA2"/>
 </g>
</svg>