<svg xmlns="http://www.w3.org/2000/svg" width="971" height="747">
 <!-- Created with Image Occlusion Enhanced -->
 <g>
  <title>Labels</title>
 </g>
 <g>
  <title>Masks</title>
  <ellipse ry="18" rx="18" id="c058f97680404982868961c1d8c6c571-ao-1" cy="381.70369" cx="31.77771" stroke="#2D2D2D" fill="#FFEBA2"/>
  <ellipse id="c058f97680404982868961c1d8c6c571-ao-2" ry="18" rx="18" cy="382.62962" cx="88.25919" stroke="#2D2D2D" fill="#FFEBA2"/>
  <ellipse id="c058f97680404982868961c1d8c6c571-ao-3" ry="18" rx="18" cy="531.7037" cx="69.74067" stroke="#2D2D2D" fill="#FFEBA2"/>
  <ellipse id="c058f97680404982868961c1d8c6c571-ao-4" ry="18" rx="18" cy="627.99999" cx="73.44437" stroke="#2D2D2D" fill="#FFEBA2"/>
  <ellipse id="c058f97680404982868961c1d8c6c571-ao-5" ry="18" rx="18" cy="611.33333" cx="196.59252" stroke="#2D2D2D" fill="#FFEBA2"/>
  <ellipse id="c058f97680404982868961c1d8c6c571-ao-6" ry="18" rx="18" cy="699.29629" cx="314.18512" stroke="#2D2D2D" fill="#FFEBA2"/>
  <ellipse id="c058f97680404982868961c1d8c6c571-ao-7" ry="18" rx="18" cy="666.88888" cx="339.18512" stroke="#2D2D2D" fill="#FFEBA2"/>
  <ellipse id="c058f97680404982868961c1d8c6c571-ao-8" ry="18" rx="18" cy="571.51851" cx="296.59252" stroke="#2D2D2D" fill="#FFEBA2"/>
  <ellipse id="c058f97680404982868961c1d8c6c571-ao-9" ry="18" rx="18" cy="478" cx="253.074" stroke="#2D2D2D" fill="#FFEBA2"/>
  <ellipse id="c058f97680404982868961c1d8c6c571-ao-10" ry="18" rx="18" cy="431.70371" cx="324.3703" stroke="#2D2D2D" fill="#FFEBA2"/>
  <ellipse id="c058f97680404982868961c1d8c6c571-ao-11" ry="18" rx="18" cy="378" cx="172.51846" stroke="#2D2D2D" fill="#FFEBA2"/>
  <ellipse id="c058f97680404982868961c1d8c6c571-ao-12" ry="18" rx="18" cy="310.40741" cx="167.88883" stroke="#2D2D2D" fill="#FFEBA2"/>
  <ellipse id="c058f97680404982868961c1d8c6c571-ao-13" ry="18" rx="18" cy="343.74075" cx="270.6666" stroke="#2D2D2D" fill="#FFEBA2"/>
  <ellipse id="c058f97680404982868961c1d8c6c571-ao-14" ry="18" rx="18" cy="366.88889" cx="237.33327" stroke="#2D2D2D" fill="#FFEBA2"/>
  <ellipse id="c058f97680404982868961c1d8c6c571-ao-15" ry="18" rx="18" cy="382.62964" cx="285.48142" stroke="#2D2D2D" fill="#FFEBA2"/>
  <ellipse id="c058f97680404982868961c1d8c6c571-ao-16" ry="18" rx="18" cy="322.44445" cx="437.33326" stroke="#2D2D2D" fill="#FFEBA2"/>
  <ellipse id="c058f97680404982868961c1d8c6c571-ao-17" ry="18" rx="18" cy="432.62963" cx="653.074" stroke="#2D2D2D" fill="#FFEBA2"/>
  <ellipse id="c058f97680404982868961c1d8c6c571-ao-18" ry="18" rx="18" cy="550.22222" cx="666.96288" stroke="#2D2D2D" fill="#FFEBA2"/>
  <ellipse id="c058f97680404982868961c1d8c6c571-ao-19" ry="18" rx="18" cy="501.14815" cx="794.74066" stroke="#2D2D2D" fill="#FFEBA2"/>
  <ellipse id="c058f97680404982868961c1d8c6c571-ao-20" ry="18" rx="18" cy="539.11112" cx="874.37029" stroke="#2D2D2D" fill="#FF7E7E" class="qshape"/>
  <ellipse id="c058f97680404982868961c1d8c6c571-ao-21" ry="18" rx="18" cy="398.37037" cx="801.22214" stroke="#2D2D2D" fill="#FFEBA2"/>
  <ellipse id="c058f97680404982868961c1d8c6c571-ao-22" ry="18" rx="18" cy="340.03704" cx="820.66658" stroke="#2D2D2D" fill="#FFEBA2"/>
  <ellipse id="c058f97680404982868961c1d8c6c571-ao-23" ry="18" rx="18" cy="328.92593" cx="783.62955" stroke="#2D2D2D" fill="#FFEBA2"/>
  <ellipse id="c058f97680404982868961c1d8c6c571-ao-24" ry="18" rx="18" cy="308.55556" cx="907.70363" stroke="#2D2D2D" fill="#FFEBA2"/>
  <ellipse id="c058f97680404982868961c1d8c6c571-ao-25" ry="18" rx="18" cy="244.66666" cx="740.11103" stroke="#2D2D2D" fill="#FFEBA2"/>
  <ellipse id="c058f97680404982868961c1d8c6c571-ao-26" ry="18" rx="18" cy="178.92593" cx="882.70362" stroke="#2D2D2D" fill="#FFEBA2"/>
  <ellipse id="c058f97680404982868961c1d8c6c571-ao-27" ry="18" rx="18" cy="174.2963" cx="941.03696" stroke="#2D2D2D" fill="#FFEBA2"/>
  <ellipse id="c058f97680404982868961c1d8c6c571-ao-28" ry="18" rx="18" cy="140.96297" cx="912.33325" stroke="#2D2D2D" fill="#FFEBA2"/>
 </g>
</svg>