<svg xmlns="http://www.w3.org/2000/svg" width="1200" height="646">
 <!-- Created with Image Occlusion Enhanced -->
 <g>
  <title>Labels</title>
 </g>
 <g>
  <title>Masks</title>
  <ellipse ry="16.19318" rx="17.04545" id="d253983a28e9485b9beda9a7ae8189e8-ao-1" cy="161.10228" cx="38.35227" stroke="#2D2D2D" fill="#FFEBA2"/>
  <ellipse id="d253983a28e9485b9beda9a7ae8189e8-ao-2" ry="16.19318" rx="17.04545" cy="307.69317" cx="66.47727" stroke="#2D2D2D" fill="#FFEBA2"/>
  <ellipse id="d253983a28e9485b9beda9a7ae8189e8-ao-3" ry="16.19318" rx="17.04545" cy="422.74999" cx="68.1818" stroke="#2D2D2D" fill="#FFEBA2"/>
  <ellipse id="d253983a28e9485b9beda9a7ae8189e8-ao-4" ry="16.19318" rx="17.04545" cy="421.04545" cx="162.78405" stroke="#2D2D2D" fill="#FFEBA2"/>
  <ellipse id="d253983a28e9485b9beda9a7ae8189e8-ao-5" ry="16.19318" rx="17.04545" cy="66.5" cx="290.62497" stroke="#2D2D2D" fill="#FFEBA2"/>
  <ellipse id="d253983a28e9485b9beda9a7ae8189e8-ao-6" ry="16.19318" rx="17.04545" cy="112.52272" cx="232.67041" stroke="#2D2D2D" fill="#FFEBA2"/>
  <ellipse id="d253983a28e9485b9beda9a7ae8189e8-ao-7" ry="16.19318" rx="17.04545" cy="144.05681" cx="295.73862" stroke="#2D2D2D" fill="#FFEBA2"/>
  <ellipse id="d253983a28e9485b9beda9a7ae8189e8-ao-8" ry="16.19318" rx="17.04545" cy="415.07954" cx="262.49997" stroke="#2D2D2D" fill="#FFEBA2"/>
  <ellipse id="d253983a28e9485b9beda9a7ae8189e8-ao-9" ry="16.19318" rx="17.04545" cy="404.85226" cx="317.89771" stroke="#2D2D2D" fill="#FFEBA2"/>
  
  <ellipse id="d253983a28e9485b9beda9a7ae8189e8-ao-11" ry="16.19318" rx="17.04545" cy="176.44317" cx="467.04542" stroke="#2D2D2D" fill="#FFEBA2"/>
  <ellipse id="d253983a28e9485b9beda9a7ae8189e8-ao-12" ry="16.19318" rx="17.04545" cy="278.7159" cx="438.06815" stroke="#2D2D2D" fill="#FFEBA2"/>
  <ellipse id="d253983a28e9485b9beda9a7ae8189e8-ao-13" ry="16.19318" rx="17.04545" cy="394.62499" cx="415.90906" stroke="#2D2D2D" fill="#FFEBA2"/>
  <ellipse id="d253983a28e9485b9beda9a7ae8189e8-ao-14" ry="16.19318" rx="17.04545" cy="492.63635" cx="652.84088" stroke="#2D2D2D" fill="#FFEBA2"/>
  <ellipse id="d253983a28e9485b9beda9a7ae8189e8-ao-15" ry="16.19318" rx="17.04545" cy="351.15908" cx="689.48861" stroke="#2D2D2D" fill="#FFEBA2"/>
  <ellipse id="d253983a28e9485b9beda9a7ae8189e8-ao-16" ry="16.19318" rx="17.04545" cy="223.31817" cx="732.10225" stroke="#2D2D2D" fill="#FFEBA2"/>
  <ellipse id="d253983a28e9485b9beda9a7ae8189e8-ao-17" ry="16.19318" rx="17.04545" cy="243.77272" cx="998.86362" stroke="#2D2D2D" fill="#FFEBA2"/>
  <ellipse id="d253983a28e9485b9beda9a7ae8189e8-ao-18" ry="16.19318" rx="17.04545" cy="436.38635" cx="894.03406" stroke="#2D2D2D" fill="#FFEBA2"/>
  <ellipse id="d253983a28e9485b9beda9a7ae8189e8-ao-19" ry="16.19318" rx="17.04545" cy="513.09091" cx="1013.35224" stroke="#2D2D2D" fill="#FFEBA2"/>
  <ellipse id="d253983a28e9485b9beda9a7ae8189e8-ao-20" ry="16.19318" rx="17.04545" cy="412.52272" cx="1089.20453" stroke="#2D2D2D" fill="#FFEBA2"/>
  <ellipse id="d253983a28e9485b9beda9a7ae8189e8-ao-21" ry="16.19318" rx="17.04545" cy="478.14773" cx="1164.2045" stroke="#2D2D2D" fill="#FFEBA2"/>
 </g>
</svg>