<svg xmlns="http://www.w3.org/2000/svg" width="1200" height="809">
 <!-- Created with Image Occlusion Enhanced -->
 <g>
  <title>Labels</title>
 </g>
 <g>
  <title>Masks</title>
  <ellipse ry="18" rx="18" id="e8bd5c8a03114b50988f731e7e7ebe4a-ao-1" cy="284.9986" cx="325.46166" stroke="#2D2D2D" fill="#FFEBA2"/>
  <ellipse id="e8bd5c8a03114b50988f731e7e7ebe4a-ao-2" ry="18" rx="18" cy="286.91622" cx="388.74291" stroke="#2D2D2D" fill="#FFEBA2"/>
  <ellipse id="e8bd5c8a03114b50988f731e7e7ebe4a-ao-3" ry="18" rx="18" cy="365.53838" cx="346.55541" stroke="#2D2D2D" fill="#FFEBA2"/>
  <ellipse id="e8bd5c8a03114b50988f731e7e7ebe4a-ao-4" ry="18" rx="18" cy="691.53269" cx="118.35939" stroke="#2D2D2D" fill="#FFEBA2"/>
  <ellipse id="e8bd5c8a03114b50988f731e7e7ebe4a-ao-5" ry="18" rx="18" cy="633.04547" cx="368.60797" stroke="#2D2D2D" fill="#FFEBA2"/>
  <ellipse id="e8bd5c8a03114b50988f731e7e7ebe4a-ao-6" ry="18" rx="18" cy="587.98155" cx="362.85513" stroke="#2D2D2D" fill="#FFEBA2"/>
  <ellipse id="e8bd5c8a03114b50988f731e7e7ebe4a-ao-7" ry="18" rx="18" cy="506.48296" cx="383.94888" stroke="#2D2D2D" fill="#FFEBA2"/>
  <ellipse id="e8bd5c8a03114b50988f731e7e7ebe4a-ao-8" ry="18" rx="18" cy="581.2699" cx="496.12928" stroke="#2D2D2D" fill="#FFEBA2"/>
  <ellipse id="e8bd5c8a03114b50988f731e7e7ebe4a-ao-9" ry="18" rx="18" cy="633.04547" cx="431.88922" stroke="#2D2D2D" fill="#FFEBA2"/>
  <ellipse id="e8bd5c8a03114b50988f731e7e7ebe4a-ao-10" ry="18" rx="18" cy="679.0682" cx="421.34234" stroke="#2D2D2D" fill="#FFEBA2"/>
  <ellipse id="e8bd5c8a03114b50988f731e7e7ebe4a-ao-11" ry="18" rx="18" cy="341.56819" cx="554.61649" stroke="#2D2D2D" fill="#FF7E7E" class="qshape"/>
  <ellipse id="e8bd5c8a03114b50988f731e7e7ebe4a-ao-12" ry="18" rx="18" cy="216.9233" cx="586.25712" stroke="#2D2D2D" fill="#FFEBA2"/>
  <ellipse id="e8bd5c8a03114b50988f731e7e7ebe4a-ao-13" ry="18" rx="18" cy="256.23438" cx="659.12644" stroke="#2D2D2D" fill="#FFEBA2"/>
  <ellipse id="e8bd5c8a03114b50988f731e7e7ebe4a-ao-14" ry="18" rx="18" cy="228.42898" cx="780.8949" stroke="#2D2D2D" fill="#FFEBA2"/>
  <ellipse id="e8bd5c8a03114b50988f731e7e7ebe4a-ao-15" ry="18" rx="18" cy="420.19035" cx="662.96167" stroke="#2D2D2D" fill="#FFEBA2"/>
  <ellipse id="e8bd5c8a03114b50988f731e7e7ebe4a-ao-16" ry="18" rx="18" cy="562.09376" cx="713.77843" stroke="#2D2D2D" fill="#FFEBA2"/>
  <ellipse id="e8bd5c8a03114b50988f731e7e7ebe4a-ao-17" ry="18" rx="18" cy="595.652" cx="827.87644" stroke="#2D2D2D" fill="#FFEBA2"/>
  <ellipse id="e8bd5c8a03114b50988f731e7e7ebe4a-ao-18" ry="18" rx="18" cy="641.67473" cx="694.60229" stroke="#2D2D2D" fill="#FFEBA2"/>
  <ellipse id="e8bd5c8a03114b50988f731e7e7ebe4a-ao-19" ry="18" rx="18" cy="754.81394" cx="727.20172" stroke="#2D2D2D" fill="#FFEBA2"/>
  <ellipse id="e8bd5c8a03114b50988f731e7e7ebe4a-ao-20" ry="18" rx="18" cy="582.22871" cx="973.61507" stroke="#2D2D2D" fill="#FFEBA2"/>
 </g>
</svg>