<svg xmlns="http://www.w3.org/2000/svg" width="1200" height="818">
 <!-- Created with Image Occlusion Enhanced -->
 <g>
  <title>Labels</title>
 </g>
 <g>
  <title>Masks</title>
  <ellipse ry="18" rx="18" id="e8c855e07f144bbab0a3a475adec527c-ao-1" cy="125.46589" cx="178.12497" stroke="#2D2D2D" fill="#FFEBA2"/>
  <ellipse id="e8c855e07f144bbab0a3a475adec527c-ao-2" ry="18" rx="18" cy="358.13634" cx="66.90339" stroke="#2D2D2D" fill="#FFEBA2"/>
  <ellipse id="e8c855e07f144bbab0a3a475adec527c-ao-3" ry="18" rx="18" cy="533.27839" cx="38.77839" stroke="#2D2D2D" fill="#FFEBA2"/>
  <ellipse id="e8c855e07f144bbab0a3a475adec527c-ao-4" ry="18" rx="18" cy="579.30112" cx="38.77839" stroke="#2D2D2D" fill="#FFEBA2"/>
  <ellipse id="e8c855e07f144bbab0a3a475adec527c-ao-5" ry="18" rx="18" cy="667.51134" cx="51.56248" stroke="#2D2D2D" fill="#FFEBA2"/>
  <ellipse id="e8c855e07f144bbab0a3a475adec527c-ao-6" ry="18" rx="18" cy="630.43748" cx="261.22157" stroke="#2D2D2D" fill="#FFEBA2"/>
  <ellipse id="e8c855e07f144bbab0a3a475adec527c-ao-7" ry="18" rx="18" cy="741.65907" cx="207.52839" stroke="#2D2D2D" fill="#FFEBA2"/>
  <ellipse id="e8c855e07f144bbab0a3a475adec527c-ao-8" ry="18" rx="18" cy="792.79543" cx="381.39203" stroke="#2D2D2D" fill="#FFEBA2"/>
  <ellipse id="e8c855e07f144bbab0a3a475adec527c-ao-9" ry="18" rx="18" cy="741.65907" cx="376.2784" stroke="#2D2D2D" fill="#FFEBA2"/>
  
  <ellipse id="e8c855e07f144bbab0a3a475adec527c-ao-11" ry="18" rx="18" cy="547.34089" cx="348.1534" stroke="#2D2D2D" fill="#FFEBA2"/>
  <ellipse id="e8c855e07f144bbab0a3a475adec527c-ao-12" ry="18" rx="18" cy="485.97725" cx="256.10795" stroke="#2D2D2D" fill="#FFEBA2"/>
  <ellipse id="e8c855e07f144bbab0a3a475adec527c-ao-13" ry="18" rx="18" cy="388.81816" cx="290.625" stroke="#2D2D2D" fill="#FFEBA2"/>
  <ellipse id="e8c855e07f144bbab0a3a475adec527c-ao-14" ry="18" rx="18" cy="107.56817" cx="391.61931" stroke="#2D2D2D" fill="#FFEBA2"/>
  <ellipse id="e8c855e07f144bbab0a3a475adec527c-ao-15" ry="18" rx="18" cy="428.44885" cx="523.29545" stroke="#2D2D2D" fill="#FFEBA2"/>
  <ellipse id="e8c855e07f144bbab0a3a475adec527c-ao-16" ry="18" rx="18" cy="492.3693" cx="639.63067" stroke="#2D2D2D" fill="#FFEBA2"/>
  <ellipse id="e8c855e07f144bbab0a3a475adec527c-ao-17" ry="18" rx="18" cy="601.03407" cx="674.14772" stroke="#2D2D2D" fill="#FFEBA2"/>
  <ellipse id="e8c855e07f144bbab0a3a475adec527c-ao-18" ry="18" rx="18" cy="783.84656" cx="709.94317" stroke="#2D2D2D" fill="#FFEBA2"/>
  <ellipse id="e8c855e07f144bbab0a3a475adec527c-ao-19" ry="18" rx="18" cy="652.17044" cx="743.18181" stroke="#2D2D2D" fill="#FFEBA2"/>
  <ellipse id="e8c855e07f144bbab0a3a475adec527c-ao-20" ry="18" rx="18" cy="525.60794" cx="743.18181" stroke="#2D2D2D" fill="#FFEBA2"/>
  <ellipse id="e8c855e07f144bbab0a3a475adec527c-ao-21" ry="18" rx="18" cy="378.5909" cx="663.92045" stroke="#2D2D2D" fill="#FFEBA2"/>
  <ellipse id="e8c855e07f144bbab0a3a475adec527c-ao-22" ry="18" rx="18" cy="175.32386" cx="553.97726" stroke="#2D2D2D" fill="#FFEBA2"/>
  <ellipse id="e8c855e07f144bbab0a3a475adec527c-ao-23" ry="18" rx="18" cy="134.41477" cx="747.01703" stroke="#2D2D2D" fill="#FFEBA2"/>
  <ellipse id="e8c855e07f144bbab0a3a475adec527c-ao-24" ry="18" rx="18" cy="267.36932" cx="726.56249" stroke="#2D2D2D" fill="#FFEBA2"/>
  <ellipse id="e8c855e07f144bbab0a3a475adec527c-ao-25" ry="18" rx="18" cy="264.8125" cx="932.38635" stroke="#2D2D2D" fill="#FFEBA2"/>
  <ellipse id="e8c855e07f144bbab0a3a475adec527c-ao-26" ry="18" rx="18" cy="506.43181" cx="1018.03976" stroke="#2D2D2D" fill="#FFEBA2"/>
 </g>
</svg>