<svg xmlns="http://www.w3.org/2000/svg" width="1200" height="960">
 <!-- Created with Image Occlusion Enhanced -->
 <g>
  <title>Labels</title>
 </g>
 <g>
  <title>Masks</title>
  <rect stroke="#2D2D2D" id="e9a300123f514311bfd2a492486703f5-ao-1" height="19.20597" width="144" y="718.08239" x="189.12358" fill="#FFEBA2"/>
  <rect id="e9a300123f514311bfd2a492486703f5-ao-2" stroke="#2D2D2D" height="19.20597" width="144" y="760.26989" x="178.5767" fill="#FFEBA2"/>
  <rect stroke="#2D2D2D" id="e9a300123f514311bfd2a492486703f5-ao-3" height="19.20597" width="49.07813" y="719.70037" x="519.3726" fill="#FFEBA2"/>
  <rect stroke="#2D2D2D" id="e9a300123f514311bfd2a492486703f5-ao-4" height="20.28462" width="31.8196" y="695.90998" x="624.42187" fill="#FFEBA2"/>
  <rect stroke="#2D2D2D" id="e9a300123f514311bfd2a492486703f5-ao-5" height="19.20597" width="57.70741" y="648.08948" x="691.53837" fill="#FFEBA2"/>
  <rect stroke="#2D2D2D" id="e9a300123f514311bfd2a492486703f5-ao-6" height="19.20597" width="37.57244" y="749.72301" x="694.41477" fill="#FFEBA2"/>
  <rect stroke="#2D2D2D" id="e9a300123f514311bfd2a492486703f5-ao-7" height="19.20597" width="50.03693" y="826.72718" x="560.54136" fill="#FFEBA2"/>
  <rect id="e9a300123f514311bfd2a492486703f5-ao-8" stroke="#2D2D2D" height="19.20597" width="50.03693" y="877.00461" x="556.76606" fill="#FFEBA2"/>
  <rect id="e9a300123f514311bfd2a492486703f5-ao-9" stroke="#2D2D2D" height="19.20597" width="50.03693" y="852.19548" x="554.06941" fill="#FFEBA2"/>
  <rect id="e9a300123f514311bfd2a492486703f5-ao-10" stroke="#2D2D2D" height="19.20597" width="50.03693" y="908.82501" x="623.64284" fill="#FFEBA2"/>
  <rect stroke="#2D2D2D" id="e9a300123f514311bfd2a492486703f5-ao-11" height="19.20597" width="66.75613" y="913.13964" x="748.22779" fill="#FFEBA2"/>
  <rect stroke="#2D2D2D" id="e9a300123f514311bfd2a492486703f5-ao-12" height="19.20597" width="70.53143" y="852.19549" x="739.59853" fill="#FFEBA2"/>
  <rect stroke="#2D2D2D" id="e9a300123f514311bfd2a492486703f5-ao-13" height="19.20597" width="58.06694" y="826.3077" x="708.97663" fill="#FFEBA2"/>
  <rect stroke="#2D2D2D" id="e9a300123f514311bfd2a492486703f5-ao-14" height="21.36328" width="49.07813" y="526.08132" x="396.94494" fill="#FFEBA2"/>
  <rect id="e9a300123f514311bfd2a492486703f5-ao-15" stroke="#2D2D2D" height="21.36328" width="49.07813" y="467.29447" x="701.66575" fill="#FFEBA2"/>
  <rect id="e9a300123f514311bfd2a492486703f5-ao-16" stroke="#2D2D2D" height="21.36328" width="49.07813" y="429.60138" x="731.56854" fill="#FFEBA2"/>
  <rect stroke="#2D2D2D" id="e9a300123f514311bfd2a492486703f5-ao-17" height="17.58798" width="49.07813" y="407.42898" x="734.02549" fill="#FFEBA2"/>
  <rect stroke="#2D2D2D" id="e9a300123f514311bfd2a492486703f5-ao-18" height="17.58798" width="83.59517" y="382.08052" x="718.9243" fill="#FFEBA2"/>
  <rect stroke="#2D2D2D" id="e9a300123f514311bfd2a492486703f5-ao-19" height="19.74529" width="58.24671" y="358.88938" x="734.56482" fill="#FFEBA2"/>
  <rect stroke="#2D2D2D" id="e9a300123f514311bfd2a492486703f5-ao-20" height="18.66663" width="51.77477" y="264.50683" x="624.00241" fill="#FFEBA2"/>
  <rect stroke="#2D2D2D" id="e9a300123f514311bfd2a492486703f5-ao-21" height="18.66663" width="41.7073" y="242.93367" x="494.56348" fill="#FFEBA2"/>
  <rect id="e9a300123f514311bfd2a492486703f5-ao-22" stroke="#2D2D2D" height="18.66663" width="41.7073" y="108.46101" x="538.20417" fill="#FFEBA2"/>
  <rect stroke="#2D2D2D" id="e9a300123f514311bfd2a492486703f5-ao-23" height="18.66663" width="42.31405" y="131.47237" x="523.66476" fill="#FFEBA2"/>
  <rect stroke="#2D2D2D" id="e9a300123f514311bfd2a492486703f5-ao-24" height="18.66663" width="45.65114" y="52.3371" x="530.92323" fill="#FFEBA2"/>
  
  <rect stroke="#2D2D2D" id="e9a300123f514311bfd2a492486703f5-ao-26" height="20.48687" width="69.31419" y="190.67494" x="427.7766" fill="#FFEBA2"/>
  <rect id="e9a300123f514311bfd2a492486703f5-ao-27" stroke="#2D2D2D" height="20.48687" width="69.31419" y="224.95603" x="404.11355" fill="#FFEBA2"/>
  <rect stroke="#2D2D2D" id="e9a300123f514311bfd2a492486703f5-ao-28" height="18.66663" width="74.06702" y="314.93407" x="383.7314" fill="#FFEBA2"/>
  <rect stroke="#2D2D2D" id="e9a300123f514311bfd2a492486703f5-ao-29" height="18.66663" width="150.92138" y="371.5636" x="345.70872" fill="#FFEBA2"/>
  <rect stroke="#2D2D2D" id="e9a300123f514311bfd2a492486703f5-ao-30" height="18.66663" width="47.77475" y="345.27132" x="398.69777" fill="#FFEBA2"/>
  <rect stroke="#2D2D2D" id="e9a300123f514311bfd2a492486703f5-ao-31" height="20.68912" width="42.5163" y="400.68736" x="396.27079" fill="#FFEBA2"/>
  <rect stroke="#2D2D2D" id="e9a300123f514311bfd2a492486703f5-ao-32" height="18.66663" width="82.56146" y="438.71005" x="380.49543" fill="#FFEBA2"/>
 </g>
</svg>