<svg xmlns="http://www.w3.org/2000/svg" version="1.1" style="background-color:#fff;-webkit-font-smoothing:antialiased" width="850" height="600" font-family="Lato,'Helvetica Neue',Helvetica,Arial,sans-serif" font-size="18" text-rendering="optimizeLegibility"><g class="HeaderView"><g transform="matrix(.29 0 0 .29 774 15)"><svg width="210" height="120" viewBox="0 0 210 120" fill="none" xmlns="http://www.w3.org/2000/svg"><g clip-path="url(#clip0)"><path d="M0 0h210v107.89H0V0z" fill="#002147"/><path d="M40.98 32.25c0 2.36-.38 4.53-1.12 6.51a14.26 14.26 0 01-8.1 8.4c-1.9.78-4.02 1.17-6.34 1.17-2.31 0-4.42-.39-6.33-1.17a14.31 14.31 0 01-8.08-8.4 18.29 18.29 0 01-1.12-6.51c0-2.36.38-4.53 1.12-6.5.75-1.97 1.8-3.67 3.17-5.1 1.37-1.43 3-2.55 4.9-3.34 1.92-.8 4.03-1.19 6.34-1.19 2.32 0 4.43.4 6.34 1.19 1.92.8 3.56 1.9 4.93 3.34a14.87 14.87 0 013.17 5.1 18.1 18.1 0 011.12 6.5zm-4.38 0c0-1.94-.26-3.68-.8-5.22a10.91 10.91 0 00-2.24-3.89 9.68 9.68 0 00-3.52-2.46 11.95 11.95 0 00-4.62-.86c-1.68 0-3.21.28-4.6.86a9.88 9.88 0 00-3.54 2.46 10.91 10.91 0 00-2.24 3.9c-.53 1.53-.8 3.27-.8 5.2 0 1.94.27 3.68.8 5.22a11.17 11.17 0 002.24 3.9 10.01 10.01 0 003.55 2.44c1.38.56 2.9.83 4.6.83 1.7 0 3.24-.27 4.61-.83a9.8 9.8 0 003.52-2.44 11.17 11.17 0 002.25-3.9c.53-1.54.8-3.28.8-5.21zm26.22-6.54V48H60.5c-.56 0-.9-.27-1.05-.81l-.31-2.4a12.45 12.45 0 01-3.26 2.6c-1.2.64-2.58.96-4.13.96-1.22 0-2.3-.2-3.24-.6a6.52 6.52 0 01-2.33-1.7 7.37 7.37 0 01-1.43-2.67c-.3-1.04-.46-2.2-.46-3.45V25.7h3.91v14.22c0 1.68.38 2.99 1.15 3.91.77.93 1.96 1.39 3.54 1.39 1.16 0 2.24-.27 3.23-.82a10.42 10.42 0 002.8-2.28V25.7h3.91zm8.61 4.47a9.94 9.94 0 012.6-3.56 5.64 5.64 0 013.76-1.3c.47 0 .92.05 1.34.15.44.1.83.27 1.17.49L80 28.88c-.09.37-.3.55-.66.55-.2 0-.5-.04-.9-.13a6.21 6.21 0 00-3.24.18c-.54.2-1.03.5-1.47.92-.42.4-.81.9-1.17 1.5-.33.58-.64 1.26-.92 2.02V48h-3.94V25.71h2.25c.42 0 .72.08.88.25.16.16.27.44.33.83l.26 3.39zm61.16-13.7L122.75 48h-3.82l-7.99-24.05a21.95 21.95 0 01-.42-1.58 38.36 38.36 0 01-.44 1.58L102.05 48h-3.83L88.4 16.47h3.54c.38 0 .7.1.95.29.26.2.43.43.5.73l6.52 21.9c.1.4.2.83.28 1.28.1.46.2.94.29 1.46l.3-1.46c.12-.47.25-.9.38-1.27l7.41-21.91c.1-.25.26-.48.51-.69.27-.22.58-.33.95-.33h1.23c.38 0 .69.1.92.29.24.2.41.43.53.73l7.4 21.9a28.4 28.4 0 01.68 2.62 29.52 29.52 0 01.52-2.61l6.54-21.91c.07-.27.23-.5.48-.7.27-.21.58-.32.95-.32h3.32zm9.35 8.88c1.63 0 3.1.27 4.4.82a9.43 9.43 0 015.46 5.94c.5 1.4.74 2.98.74 4.73 0 1.76-.25 3.34-.74 4.75a9.43 9.43 0 01-5.46 5.92c-1.3.52-2.77.79-4.4.79-1.64 0-3.12-.27-4.44-.8a9.42 9.42 0 01-3.35-2.3c-.92-1-1.63-2.2-2.13-3.61-.49-1.41-.73-3-.73-4.75s.24-3.33.73-4.73c.5-1.43 1.2-2.64 2.13-3.63.93-1 2.04-1.77 3.35-2.31 1.32-.55 2.8-.82 4.44-.82zm0 19.89c2.2 0 3.84-.73 4.93-2.2 1.08-1.48 1.63-3.54 1.63-6.18 0-2.66-.55-4.72-1.63-6.2-1.09-1.49-2.73-2.23-4.93-2.23-1.12 0-2.09.2-2.93.57-.82.39-1.5.94-2.06 1.65-.55.72-.96 1.61-1.24 2.67-.26 1.04-.4 2.22-.4 3.54 0 2.64.55 4.7 1.64 6.18 1.1 1.47 2.76 2.2 4.99 2.2zm17.97-15.07a9.94 9.94 0 012.6-3.56 5.64 5.64 0 013.76-1.3c.47 0 .91.05 1.34.15.44.1.83.27 1.16.49l-.28 2.92c-.09.37-.31.55-.66.55-.2 0-.5-.04-.9-.13a6.2 6.2 0 00-3.24.18c-.54.2-1.03.5-1.47.92-.43.4-.82.9-1.17 1.5a13.1 13.1 0 00-.92 2.02V48h-3.94V25.71h2.24c.43 0 .72.08.88.25.17.16.28.44.33.83l.27 3.39zm15.04-14.59V48h-3.92V15.6h3.92zm19.55 15.43a6.22 6.22 0 00-2.38-2.05 6.7 6.7 0 00-2.86-.6c-2.07 0-3.66.75-4.77 2.23-1.12 1.48-1.68 3.6-1.68 6.33 0 1.46.13 2.7.38 3.74a7.29 7.29 0 001.1 2.56 4.35 4.35 0 001.78 1.45c.7.3 1.5.46 2.4.46 1.29 0 2.41-.3 3.36-.88a9.6 9.6 0 002.67-2.49V31.02zm3.91-15.43V48h-2.33c-.56 0-.9-.27-1.06-.81l-.35-2.71a12.13 12.13 0 01-3.25 2.77 8.28 8.28 0 01-4.23 1.06 7.31 7.31 0 01-6.14-2.9c-.73-.96-1.3-2.15-1.69-3.57a18.35 18.35 0 01.07-9.48 11.29 11.29 0 011.89-3.7 8.7 8.7 0 017.06-3.34 7.96 7.96 0 016.12 2.62V15.59h3.91zM46.61 70.71V93H42.7V70.71h3.91zm.84-7c0 .39-.08.75-.24 1.09-.15.32-.35.61-.62.88-.25.25-.55.44-.9.59a2.67 2.67 0 01-2.16 0 2.9 2.9 0 01-1.45-1.47 2.67 2.67 0 010-2.16c.15-.35.35-.65.6-.9.25-.27.53-.47.85-.62a2.67 2.67 0 012.16 0c.35.15.65.35.9.62.27.25.47.55.62.9.16.34.24.7.24 1.08zm7.97 10.24c.49-.54 1-1.04 1.54-1.48a9.85 9.85 0 013.66-1.84 8.96 8.96 0 015.43.35c.94.4 1.72.97 2.33 1.71.63.74 1.11 1.62 1.43 2.67.32 1.04.49 2.19.49 3.45V93h-3.94V78.81c0-1.69-.4-3-1.17-3.92-.76-.93-1.93-1.4-3.5-1.4-1.15 0-2.24.27-3.25.83-1 .56-1.92 1.31-2.77 2.27V93h-3.94V70.71h2.35c.56 0 .9.28 1.04.82l.3 2.42zm57.7 3.3c0 2.36-.37 4.5-1.11 6.44a14.3 14.3 0 01-3.17 4.98c-1.37 1.37-3 2.45-4.93 3.2-1.9.76-4.02 1.13-6.33 1.13H85.8V61.47h11.77c2.31 0 4.42.39 6.33 1.15a13.8 13.8 0 018.1 8.18 17.75 17.75 0 011.12 6.45zm-4.37 0c0-1.94-.26-3.67-.8-5.2a10.94 10.94 0 00-2.23-3.87 9.57 9.57 0 00-3.53-2.42 12.23 12.23 0 00-4.61-.83h-7.5v24.62h7.5c1.7 0 3.24-.28 4.61-.84a9.7 9.7 0 003.53-2.4 10.94 10.94 0 002.24-3.87c.53-1.53.8-3.26.8-5.2zm19.8 5.72c-1.8.06-3.34.2-4.62.44-1.26.22-2.3.51-3.1.88-.8.36-1.37.8-1.74 1.3-.35.5-.53 1.05-.53 1.67 0 .58.1 1.1.3 1.52a3 3 0 00.76 1.05c.34.27.73.46 1.17.6.45.11.94.17 1.45.17a7.28 7.28 0 003.5-.81 11.95 11.95 0 002.82-2.2v-4.62zm-12.65-9.11a12.73 12.73 0 013.98-2.66c1.43-.59 3-.88 4.73-.88 1.25 0 2.36.2 3.33.61a6.81 6.81 0 013.94 4.38c.33 1.04.5 2.19.5 3.43V93h-1.74a1.8 1.8 0 01-.88-.18c-.2-.13-.36-.38-.48-.74l-.44-2.12c-.59.55-1.16 1.03-1.72 1.46a9.48 9.48 0 01-3.74 1.7c-.69.15-1.46.23-2.3.23-.87 0-1.69-.12-2.45-.35a5.34 5.34 0 01-3.34-2.93 6.64 6.64 0 01-.49-2.64c0-.88.25-1.72.73-2.53a6.33 6.33 0 012.35-2.17c1.09-.63 2.5-1.15 4.25-1.54 1.75-.41 3.89-.65 6.42-.7v-1.75c0-1.73-.37-3.03-1.12-3.91-.75-.9-1.84-1.34-3.28-1.34-.97 0-1.78.12-2.44.37-.64.23-1.2.5-1.7.81l-1.23.82c-.33.23-.67.35-1 .35-.27 0-.5-.07-.69-.2a2.1 2.1 0 01-.48-.53l-.7-1.25zm27.67 19.5c-1.76 0-3.12-.5-4.07-1.48-.94-.98-1.41-2.4-1.41-4.25V74h-2.68a.9.9 0 01-.6-.2c-.16-.14-.24-.36-.24-.66v-1.56l3.65-.46.9-6.89c.05-.22.14-.4.29-.52a.88.88 0 01.62-.22H142v7.67h6.44V74h-6.44v13.38c0 .94.22 1.63.68 2.09.45.45 1.04.68 1.76.68a3.21 3.21 0 001.85-.53l.55-.35c.16-.12.3-.18.41-.18.2 0 .4.13.55.38l1.15 1.87a7.45 7.45 0 01-2.44 1.5c-.96.35-1.94.52-2.95.52zm19.68-10.4c-1.8.07-3.34.21-4.62.45-1.26.22-2.3.51-3.1.88-.8.36-1.37.8-1.74 1.3-.35.5-.53 1.05-.53 1.67 0 .58.1 1.1.3 1.52.18.42.44.77.76 1.05.34.27.73.46 1.17.6.45.11.94.17 1.45.17a7.3 7.3 0 003.5-.81 12.04 12.04 0 002.82-2.2v-4.62zm-12.65-9.1a12.72 12.72 0 013.99-2.66c1.42-.59 3-.88 4.72-.88 1.25 0 2.36.2 3.33.61a6.81 6.81 0 013.94 4.38c.33 1.04.5 2.19.5 3.43V93h-1.74a1.8 1.8 0 01-.88-.18c-.2-.13-.36-.38-.48-.74l-.44-2.12c-.59.55-1.16 1.03-1.72 1.46a9.48 9.48 0 01-3.74 1.7c-.69.15-1.46.23-2.3.23-.87 0-1.69-.12-2.45-.35a5.33 5.33 0 01-3.34-2.93 6.62 6.62 0 01-.49-2.64c0-.88.25-1.72.73-2.53a6.33 6.33 0 012.35-2.17c1.09-.63 2.5-1.15 4.25-1.54 1.74-.41 3.89-.65 6.42-.7v-1.75c0-1.73-.37-3.03-1.12-3.91-.75-.9-1.84-1.34-3.28-1.34-.97 0-1.78.12-2.44.37-.64.23-1.2.5-1.7.81-.46.3-.87.57-1.22.82-.34.23-.68.35-1.02.35-.26 0-.49-.07-.68-.2-.19-.14-.35-.32-.48-.53l-.7-1.25z" fill="#fff"/><path fill="#D42B21" d="M0 106.79h210V120H0z"/></g><defs><clipPath id="clip0"><path fill="#fff" d="M0 0h210v120H0z"/></clipPath></defs></svg></g><a href="https://ourworldindata.org/grapher/world-population-by-world-regions-post-1820" target="_blank"><text font-size="25.2" x="15" y="35.2" fill="#555"><tspan x="15" y="35.16">World population by region</tspan></text></a></g><g class="StackedArea"><defs><clipPath id="a"><path d="M75.08 0h820v973h-820z"/></clipPath></defs><g class="AxisBoxView"><g class="HorizontalAxis" fill="#666" text-anchor="middle" font-size="16.2"><text x="75.1" y="556.5">1820</text><text x="171.3" y="556.5">1850</text><text x="331.8" y="556.5">1900</text><text x="492.2" y="556.5">1950</text><text x="652.6" y="556.5">2000</text><text x="713.6" y="556.5">2019</text></g><g class="VerticalAxis" fill="#666" dominant-baseline="middle" text-anchor="end" font-size="16.2"><text x="70.08" y="535.3">0</text><text x="70.08" y="475">1 billion</text><text x="70.08" y="414.7">2 billion</text><text x="70.08" y="354.3">3 billion</text><text x="70.08" y="294">4 billion</text><text x="70.08" y="233.7">5 billion</text><text x="70.08" y="173.4">6 billion</text><text x="70.08" y="113">7 billion</text></g><g class="AxisGridLines"><path stroke="#ccc" d="M75.08 535.3H713.6"/><path stroke="#ddd" stroke-dasharray="3,2" d="M75.08 475H713.6M75.08 414.7H713.6M75.08 354.3H713.6M75.08 294H713.6M75.08 233.7H713.6M75.08 173.4H713.6M75.08 113H713.6"/></g></g><g clip-path="url(#a)"><g class="HeightedLegend" cursor="default"><g class="legendMark"><text font-size="13.5" x="717.6" y="80.8" fill="#a652ba"><tspan x="717.6" y="80.8">Oceania</tspan></text></g><g class="legendMark"><text font-size="13.5" x="717.6" y="96.1" fill="#9ecc8a"><tspan x="717.6" y="96.15">Latin America</tspan></text></g><g class="legendMark"><text font-size="13.5" x="717.6" y="126.7" fill="#34983f"><tspan x="717.6" y="126.75">North America</tspan></text></g><g class="legendMark"><text font-size="13.5" x="717.6" y="160.4" fill="#ffd53e"><tspan x="717.6" y="160.35">Europe</tspan></text></g><g class="legendMark"><text font-size="13.5" x="717.6" y="222.4" fill="#3360a9"><tspan x="717.6" y="222.35">Africa</tspan></text></g><g class="legendMark"><text font-size="13.5" x="717.6" y="400.6" fill="#ca2628"><tspan x="717.6" y="400.55">Asia</tspan></text></g></g><g class="Areas"><path class="Asia_0-area" d="M75.1 490.3l32.1-2.4 32.1-1.1 32-1.1 32.1.8 32.1-.1 32.1-1.8 32.1-3.2 32.1-2.8 32.1-1.7 32-5.1 32.1-5.1 32.1-7.4 32.1-8.7 3.2-1.9 3.2-1.8 3.2-1.7 3.2-1.6 3.2-1.7 3.3-1.8 3.2-1.8 3.2-1.9 3.2-1.9 3.2-2.1 3.2-2 3.2-2.2 3.2-2.2 3.2-2.4 3.2-2.6 3.2-2.8 3.3-2.9 3.2-3 3.2-3.1 3.2-3.1 3.2-3.2 3.2-3.1 3.2-3.2 3.2-3.1 3.2-3 3.2-3.1 3.2-2.9 3.2-3 3.3-3 3.2-3 3.2-3.1 3.2-3.2 3.2-3.3 3.2-3.3 3.2-3.5 3.2-3.6 3.2-3.8 3.2-3.7 3.2-3.7 3.2-3.6 3.3-3.4 3.2-3.3 3.2-3.2 3.2-3.1 3.2-3.1 3.2-3.1 3.2-3 3.2-3 3.2-3 3.2-2.9 3.2-2.9 3.3-2.9 3.2-2.8 3.2-2.8 3.2-2.9 3.2-2.8 3.2-2.8 3.2-2.8 3.2-2.8 3.2-2.7 3.2-2.8 3.2-2.7 3.2-2.7 3.3-2.7 3.2-2.6 3.2-2.6 3.2-2.6 3.2-2.5 3.2-2.5v277.6H75.08" fill="#ca2628" fill-opacity=".7"/><path class="Africa_0-area" d="M75.1 485l32.1-2.7 32.1-1.4 32-1.4 32.1.5 32.1-.5 32.1-2.3 32.1-3.8 32.1-3.3 32.1-2.3 32-5.9 32.1-6.1 32.1-8.6 32.1-10.4 3.2-2.1 3.2-2.1 3.2-2 3.2-2 3.2-2 3.3-2.1 3.2-2.2 3.2-2.2 3.2-2.3 3.2-2.4 3.2-2.5 3.2-2.6 3.2-2.7 3.2-2.9 3.2-3 3.2-3.3 3.3-3.4 3.2-3.5 3.2-3.7 3.2-3.7 3.2-3.7 3.2-3.7 3.2-3.8 3.2-3.7 3.2-3.8 3.2-3.7 3.2-3.7 3.2-3.7 3.3-3.7 3.2-3.9 3.2-3.9 3.2-4 3.2-4.2 3.2-4.2 3.2-4.4 3.2-4.6 3.2-4.7 3.2-4.7 3.2-4.7 3.2-4.6 3.3-4.5 3.2-4.3 3.2-4.2 3.2-4.2 3.2-4.2 3.2-4.1 3.2-4.2 3.2-4.1 3.2-4.1 3.2-4.1 3.2-4.1 3.3-4.1 3.2-4.1 3.2-4.2 3.2-4.1 3.2-4.2 3.2-4.3 3.2-4.3 3.2-4.3 3.2-4.3 3.2-4.4 3.2-4.4 3.2-4.5 3.3-4.4 3.2-4.5 3.2-4.4 3.2-4.5 3.2-4.4 3.2-4.4v78.9l-3.2 2.5-3.2 2.5-3.2 2.6-3.2 2.6-3.2 2.6-3.3 2.7-3.2 2.7-3.2 2.7-3.2 2.8-3.2 2.7-3.2 2.8-3.2 2.8-3.2 2.8-3.2 2.8-3.2 2.9-3.2 2.8-3.2 2.8-3.3 2.9-3.2 2.9-3.2 2.9-3.2 3-3.2 3-3.2 3-3.2 3.1-3.2 3.1-3.2 3.1-3.2 3.2-3.2 3.3-3.3 3.4-3.2 3.6-3.2 3.7-3.2 3.7-3.2 3.8-3.2 3.6-3.2 3.5-3.2 3.3-3.2 3.3-3.2 3.2-3.2 3.1-3.2 3-3.3 3-3.2 3-3.2 2.9-3.2 3.1-3.2 3-3.2 3.1-3.2 3.2-3.2 3.1-3.2 3.2-3.2 3.1-3.2 3.1-3.2 3-3.3 2.9-3.2 2.8-3.2 2.6-3.2 2.4-3.2 2.2-3.2 2.2-3.2 2-3.2 2.1-3.2 1.9-3.2 1.9-3.2 1.8-3.3 1.8-3.2 1.7-3.2 1.6-3.2 1.7-3.2 1.8-3.2 1.9-32.1 8.7-32.1 7.4-32.1 5.1-32 5.1-32.1 1.7-32.1 2.8-32.1 3.2-32.1 1.8-32.1.1-32.1-.8-32 1.1-32.1 1.1-32.1 2.4" fill="#3360a9" fill-opacity=".7"/><path class="Europe_0-area" d="M75.1 471.8l32.1-3.8 32.1-2.7 32-2.4 32.1-.8 32.1-1.8 32.1-4.3 32.1-5.7 32.1-5.6 32.1-5.5 32-6.1 32.1-8.3 32.1-11.4 32.1-9.7 3.2-2.5 3.2-2.3 3.2-2.4 3.2-2.3 3.2-2.4 3.3-2.4 3.2-2.5 3.2-2.6 3.2-2.7 3.2-2.8 3.2-2.8 3.2-3 3.2-3 3.2-3.2 3.2-3.4 3.2-3.6 3.3-3.7 3.2-3.8 3.2-3.9 3.2-3.9 3.2-4 3.2-3.9 3.2-4 3.2-4 3.2-4 3.2-3.9 3.2-3.9 3.2-3.9 3.3-4 3.2-4 3.2-4.1 3.2-4.2 3.2-4.3 3.2-4.4 3.2-4.6 3.2-4.7 3.2-4.9 3.2-4.9 3.2-4.9 3.2-4.7 3.3-4.6 3.2-4.4 3.2-4.3 3.2-4.2 3.2-4.2 3.2-4.2 3.2-4.1 3.2-4.1 3.2-4.1 3.2-4.1 3.2-4.1 3.3-4.1 3.2-4.2 3.2-4.2 3.2-4.2 3.2-4.3 3.2-4.3 3.2-4.4 3.2-4.4 3.2-4.5 3.2-4.4 3.2-4.5 3.2-4.5 3.3-4.6 3.2-4.5 3.2-4.5 3.2-4.5 3.2-4.5 3.2-4.4v45l-3.2 4.4-3.2 4.4-3.2 4.5-3.2 4.4-3.2 4.5-3.3 4.4-3.2 4.5-3.2 4.4-3.2 4.4-3.2 4.3-3.2 4.3-3.2 4.3-3.2 4.3-3.2 4.2-3.2 4.1-3.2 4.2-3.2 4.1-3.3 4.1-3.2 4.1-3.2 4.1-3.2 4.1-3.2 4.1-3.2 4.2-3.2 4.1-3.2 4.2-3.2 4.2-3.2 4.2-3.2 4.3-3.3 4.5-3.2 4.6-3.2 4.7-3.2 4.7-3.2 4.7-3.2 4.6-3.2 4.4-3.2 4.2-3.2 4.2-3.2 4-3.2 3.9-3.2 3.9-3.3 3.7-3.2 3.7-3.2 3.7-3.2 3.7-3.2 3.8-3.2 3.7-3.2 3.8-3.2 3.7-3.2 3.7-3.2 3.7-3.2 3.7-3.2 3.5-3.3 3.4-3.2 3.3-3.2 3-3.2 2.9-3.2 2.7-3.2 2.6-3.2 2.5-3.2 2.4-3.2 2.3-3.2 2.2-3.2 2.2-3.3 2.1-3.2 2-3.2 2-3.2 2-3.2 2.1-3.2 2.1-32.1 10.4-32.1 8.6-32.1 6.1-32 5.9-32.1 2.3-32.1 3.3-32.1 3.8-32.1 2.3-32.1.5-32.1-.5-32 1.4-32.1 1.4-32.1 2.7" fill="#ffd53e" fill-opacity=".7"/><path class="North-America_0-area" d="M75.1 471.1l32.1-4 32.1-3 32-2.8 32.1-1.3 32.1-2.3 32.1-5 32.1-6.5 32.1-6.4 32.1-6.6 32-7 32.1-9.5 32.1-12 32.1-11.4 3.2-2.6 3.2-2.6 3.2-2.5 3.2-2.5 3.2-2.6 3.3-2.6 3.2-2.8 3.2-2.8 3.2-2.8 3.2-3 3.2-3.1 3.2-3.1 3.2-3.2 3.2-3.4 3.2-3.6 3.2-3.6 3.3-3.9 3.2-3.9 3.2-4.1 3.2-4 3.2-4.1 3.2-4.1 3.2-4.2 3.2-4.1 3.2-4.1 3.2-4.1 3.2-4 3.2-4.1 3.3-4 3.2-4.2 3.2-4.3 3.2-4.3 3.2-4.5 3.2-4.5 3.2-4.8 3.2-4.8 3.2-5.1 3.2-5.1 3.2-5 3.2-4.9 3.3-4.7 3.2-4.6 3.2-4.5 3.2-4.4 3.2-4.4 3.2-4.4 3.2-4.3 3.2-4.3 3.2-4.3 3.2-4.3 3.2-4.3 3.3-4.3 3.2-4.4 3.2-4.3 3.2-4.5 3.2-4.4 3.2-4.6 3.2-4.5 3.2-4.6 3.2-4.7 3.2-4.6 3.2-4.7 3.2-4.7 3.3-4.6 3.2-4.7 3.2-4.7 3.2-4.7 3.2-4.6 3.2-4.6v22.2l-3.2 4.4-3.2 4.5-3.2 4.5-3.2 4.5-3.2 4.5-3.3 4.6-3.2 4.5-3.2 4.5-3.2 4.4-3.2 4.5-3.2 4.4-3.2 4.4-3.2 4.3-3.2 4.3-3.2 4.2-3.2 4.2-3.2 4.2-3.3 4.1-3.2 4.1-3.2 4.1-3.2 4.1-3.2 4.1-3.2 4.1-3.2 4.2-3.2 4.2-3.2 4.2-3.2 4.3-3.2 4.4-3.3 4.6-3.2 4.7-3.2 4.9-3.2 4.9-3.2 4.9-3.2 4.7-3.2 4.6-3.2 4.4-3.2 4.3-3.2 4.2-3.2 4.1-3.2 4-3.3 4-3.2 3.9-3.2 3.9-3.2 3.9-3.2 4-3.2 4-3.2 4-3.2 3.9-3.2 4-3.2 3.9-3.2 3.9-3.2 3.8-3.3 3.7-3.2 3.6-3.2 3.4-3.2 3.2-3.2 3-3.2 3-3.2 2.8-3.2 2.8-3.2 2.7-3.2 2.6-3.2 2.5-3.3 2.4-3.2 2.4-3.2 2.3-3.2 2.4-3.2 2.3-3.2 2.5-32.1 9.7-32.1 11.4-32.1 8.3-32 6.1-32.1 5.5-32.1 5.6-32.1 5.7-32.1 4.3-32.1 1.8-32.1.8-32 2.4-32.1 2.7-32.1 3.8" fill="#34983f" fill-opacity=".7"/><path class="Latin-America_0-area" d="M75.1 469.6l32.1-4.2 32.1-3.2 32-3 32.1-1.5 32.1-2.6 32.1-5.2 32.1-7.2 32.1-6.9 32.1-7.3 32-8.1 32.1-10.8 32.1-12.9 32.1-13.6 3.2-2.9 3.2-2.8 3.2-2.8 3.2-2.8 3.2-2.9 3.3-3 3.2-3 3.2-3.2 3.2-3.2 3.2-3.3 3.2-3.4 3.2-3.5 3.2-3.7 3.2-3.7 3.2-4 3.2-4.1 3.3-4.2 3.2-4.4 3.2-4.4 3.2-4.5 3.2-4.5 3.2-4.6 3.2-4.6 3.2-4.5 3.2-4.6 3.2-4.5 3.2-4.5 3.2-4.5 3.3-4.6 3.2-4.6 3.2-4.8 3.2-4.8 3.2-4.9 3.2-5.1 3.2-5.2 3.2-5.4 3.2-5.5 3.2-5.6 3.2-5.5 3.2-5.4 3.3-5.2 3.2-5.1 3.2-5 3.2-4.9 3.2-4.8 3.2-4.9 3.2-4.8 3.2-4.8 3.2-4.7 3.2-4.8 3.2-4.7 3.3-4.8 3.2-4.8 3.2-4.8 3.2-4.8 3.2-4.9 3.2-4.9 3.2-5 3.2-5 3.2-5 3.2-5.1 3.2-5.1 3.2-5 3.3-5.1 3.2-5.1 3.2-5 3.2-5 3.2-5 3.2-5v39.1l-3.2 4.6-3.2 4.6-3.2 4.7-3.2 4.7-3.2 4.7-3.3 4.6-3.2 4.7-3.2 4.7-3.2 4.6-3.2 4.7-3.2 4.6-3.2 4.5-3.2 4.6-3.2 4.4-3.2 4.5-3.2 4.3-3.2 4.4-3.3 4.3-3.2 4.3-3.2 4.3-3.2 4.3-3.2 4.3-3.2 4.3-3.2 4.4-3.2 4.4-3.2 4.4-3.2 4.5-3.2 4.6-3.3 4.7-3.2 4.9-3.2 5-3.2 5.1-3.2 5.1-3.2 4.8-3.2 4.8-3.2 4.5-3.2 4.5-3.2 4.3-3.2 4.3-3.2 4.2-3.3 4-3.2 4.1-3.2 4-3.2 4.1-3.2 4.1-3.2 4.1-3.2 4.2-3.2 4.1-3.2 4.1-3.2 4-3.2 4.1-3.2 3.9-3.3 3.9-3.2 3.6-3.2 3.6-3.2 3.4-3.2 3.2-3.2 3.1-3.2 3.1-3.2 3-3.2 2.8-3.2 2.8-3.2 2.8-3.3 2.6-3.2 2.6-3.2 2.5-3.2 2.5-3.2 2.6-3.2 2.6-32.1 11.4-32.1 12-32.1 9.5-32 7-32.1 6.6-32.1 6.4-32.1 6.5-32.1 5-32.1 2.3-32.1 1.3-32 2.8-32.1 3-32.1 4" fill="#9ecc8a" fill-opacity=".7"/><path class="Oceania_0-area" d="M75.1 469.6l32.1-4.2 32.1-3.2 32-3.1 32.1-1.6 32.1-2.5 32.1-5.3 32.1-7.2 32.1-7 32.1-7.4 32-8.1 32.1-10.9 32.1-13 32.1-13.8 3.2-2.9 3.2-2.8 3.2-2.8 3.2-2.9 3.2-2.9 3.3-3 3.2-3 3.2-3.2 3.2-3.2 3.2-3.4 3.2-3.4 3.2-3.5 3.2-3.7 3.2-3.8 3.2-4 3.2-4.1 3.3-4.2 3.2-4.4 3.2-4.5 3.2-4.5 3.2-4.6 3.2-4.5 3.2-4.6 3.2-4.6 3.2-4.6 3.2-4.5 3.2-4.5 3.2-4.6 3.3-4.5 3.2-4.7 3.2-4.8 3.2-4.8 3.2-5 3.2-5.1 3.2-5.2 3.2-5.4 3.2-5.6 3.2-5.6 3.2-5.5 3.2-5.5 3.3-5.2 3.2-5.1 3.2-5 3.2-4.9 3.2-4.9 3.2-4.9 3.2-4.8 3.2-4.8 3.2-4.8 3.2-4.8 3.2-4.8 3.3-4.7 3.2-4.8 3.2-4.9 3.2-4.8 3.2-5 3.2-4.9 3.2-5 3.2-5.1 3.2-5.1 3.2-5 3.2-5.2 3.2-5.1 3.3-5.1 3.2-5.1L704 85l3.2-5 3.2-5 3.2-5v2.5l-3.2 5-3.2 5-3.2 5-3.2 5-3.2 5.1-3.3 5.1-3.2 5-3.2 5.1-3.2 5.1-3.2 5-3.2 5-3.2 5-3.2 4.9-3.2 4.9-3.2 4.8-3.2 4.8-3.2 4.8-3.3 4.8-3.2 4.7-3.2 4.8-3.2 4.7-3.2 4.8-3.2 4.8-3.2 4.9-3.2 4.8-3.2 4.9-3.2 5-3.2 5.1-3.3 5.2-3.2 5.4-3.2 5.5-3.2 5.6-3.2 5.5-3.2 5.4-3.2 5.2-3.2 5.1-3.2 4.9-3.2 4.8-3.2 4.8-3.2 4.6-3.3 4.6-3.2 4.5-3.2 4.5-3.2 4.5-3.2 4.6-3.2 4.5-3.2 4.6-3.2 4.6-3.2 4.5-3.2 4.5-3.2 4.4-3.2 4.4-3.3 4.2-3.2 4.1-3.2 4-3.2 3.7-3.2 3.7-3.2 3.5-3.2 3.4-3.2 3.3-3.2 3.2-3.2 3.2-3.2 3-3.3 3-3.2 2.9-3.2 2.8-3.2 2.8-3.2 2.8-3.2 2.9-32.1 13.6-32.1 12.9-32.1 10.8-32 8.1-32.1 7.3-32.1 6.9-32.1 7.2-32.1 5.2-32.1 2.6-32.1 1.5-32 3-32.1 3.2-32.1 4.2" fill="#a652ba" fill-opacity=".7"/><path class="Asia_0-border" stroke-linecap="round" d="M75.1 490.3l32.1-2.4 32.1-1.1 32-1.1 32.1.8 32.1-.1 32.1-1.8 32.1-3.2 32.1-2.8 32.1-1.7 32-5.1 32.1-5.1 32.1-7.4 32.1-8.7 3.2-1.9 3.2-1.8 3.2-1.7 3.2-1.6 3.2-1.7 3.3-1.8 3.2-1.8 3.2-1.9 3.2-1.9 3.2-2.1 3.2-2 3.2-2.2 3.2-2.2 3.2-2.4 3.2-2.6 3.2-2.8 3.3-2.9 3.2-3 3.2-3.1 3.2-3.1 3.2-3.2 3.2-3.1 3.2-3.2 3.2-3.1 3.2-3 3.2-3.1 3.2-2.9 3.2-3 3.3-3 3.2-3 3.2-3.1 3.2-3.2 3.2-3.3 3.2-3.3 3.2-3.5 3.2-3.6 3.2-3.8 3.2-3.7 3.2-3.7 3.2-3.6 3.3-3.4 3.2-3.3 3.2-3.2 3.2-3.1 3.2-3.1 3.2-3.1 3.2-3 3.2-3 3.2-3 3.2-2.9 3.2-2.9 3.3-2.9 3.2-2.8 3.2-2.8 3.2-2.9 3.2-2.8 3.2-2.8 3.2-2.8 3.2-2.8 3.2-2.7 3.2-2.8 3.2-2.7 3.2-2.7 3.3-2.7 3.2-2.6 3.2-2.6 3.2-2.6 3.2-2.5 3.2-2.5" stroke="#A92021" stroke-opacity=".7" stroke-width=".5" fill="none"/><path class="Africa_0-border" stroke-linecap="round" d="M75.1 485l32.1-2.7 32.1-1.4 32-1.4 32.1.5 32.1-.5 32.1-2.3 32.1-3.8 32.1-3.3 32.1-2.3 32-5.9 32.1-6.1 32.1-8.6 32.1-10.4 3.2-2.1 3.2-2.1 3.2-2 3.2-2 3.2-2 3.3-2.1 3.2-2.2 3.2-2.2 3.2-2.3 3.2-2.4 3.2-2.5 3.2-2.6 3.2-2.7 3.2-2.9 3.2-3 3.2-3.3 3.3-3.4 3.2-3.5 3.2-3.7 3.2-3.7 3.2-3.7 3.2-3.7 3.2-3.8 3.2-3.7 3.2-3.8 3.2-3.7 3.2-3.7 3.2-3.7 3.3-3.7 3.2-3.9 3.2-3.9 3.2-4 3.2-4.2 3.2-4.2 3.2-4.4 3.2-4.6 3.2-4.7 3.2-4.7 3.2-4.7 3.2-4.6 3.3-4.5 3.2-4.3 3.2-4.2 3.2-4.2 3.2-4.2 3.2-4.1 3.2-4.2 3.2-4.1 3.2-4.1 3.2-4.1 3.2-4.1 3.3-4.1 3.2-4.1 3.2-4.2 3.2-4.1 3.2-4.2 3.2-4.3 3.2-4.3 3.2-4.3 3.2-4.3 3.2-4.4 3.2-4.4 3.2-4.5 3.3-4.4 3.2-4.5 3.2-4.4 3.2-4.5 3.2-4.4 3.2-4.4" stroke="#2B508D" stroke-opacity=".7" stroke-width=".5" fill="none"/><path class="Europe_0-border" stroke-linecap="round" d="M75.1 471.8l32.1-3.8 32.1-2.7 32-2.4 32.1-.8 32.1-1.8 32.1-4.3 32.1-5.7 32.1-5.6 32.1-5.5 32-6.1 32.1-8.3 32.1-11.4 32.1-9.7 3.2-2.5 3.2-2.3 3.2-2.4 3.2-2.3 3.2-2.4 3.3-2.4 3.2-2.5 3.2-2.6 3.2-2.7 3.2-2.8 3.2-2.8 3.2-3 3.2-3 3.2-3.2 3.2-3.4 3.2-3.6 3.3-3.7 3.2-3.8 3.2-3.9 3.2-3.9 3.2-4 3.2-3.9 3.2-4 3.2-4 3.2-4 3.2-3.9 3.2-3.9 3.2-3.9 3.3-4 3.2-4 3.2-4.1 3.2-4.2 3.2-4.3 3.2-4.4 3.2-4.6 3.2-4.7 3.2-4.9 3.2-4.9 3.2-4.9 3.2-4.7 3.3-4.6 3.2-4.4 3.2-4.3 3.2-4.2 3.2-4.2 3.2-4.2 3.2-4.1 3.2-4.1 3.2-4.1 3.2-4.1 3.2-4.1 3.3-4.1 3.2-4.2 3.2-4.2 3.2-4.2 3.2-4.3 3.2-4.3 3.2-4.4 3.2-4.4 3.2-4.5 3.2-4.4 3.2-4.5 3.2-4.5 3.3-4.6 3.2-4.5 3.2-4.5 3.2-4.5 3.2-4.5 3.2-4.4" stroke="#D5B234" stroke-opacity=".7" stroke-width=".5" fill="none"/><path class="North-America_0-border" stroke-linecap="round" d="M75.1 471.1l32.1-4 32.1-3 32-2.8 32.1-1.3 32.1-2.3 32.1-5 32.1-6.5 32.1-6.4 32.1-6.6 32-7 32.1-9.5 32.1-12 32.1-11.4 3.2-2.6 3.2-2.6 3.2-2.5 3.2-2.5 3.2-2.6 3.3-2.6 3.2-2.8 3.2-2.8 3.2-2.8 3.2-3 3.2-3.1 3.2-3.1 3.2-3.2 3.2-3.4 3.2-3.6 3.2-3.6 3.3-3.9 3.2-3.9 3.2-4.1 3.2-4 3.2-4.1 3.2-4.1 3.2-4.2 3.2-4.1 3.2-4.1 3.2-4.1 3.2-4 3.2-4.1 3.3-4 3.2-4.2 3.2-4.3 3.2-4.3 3.2-4.5 3.2-4.5 3.2-4.8 3.2-4.8 3.2-5.1 3.2-5.1 3.2-5 3.2-4.9 3.3-4.7 3.2-4.6 3.2-4.5 3.2-4.4 3.2-4.4 3.2-4.4 3.2-4.3 3.2-4.3 3.2-4.3 3.2-4.3 3.2-4.3 3.3-4.3 3.2-4.4 3.2-4.3 3.2-4.5 3.2-4.4 3.2-4.6 3.2-4.5 3.2-4.6 3.2-4.7 3.2-4.6 3.2-4.7 3.2-4.7 3.3-4.6 3.2-4.7 3.2-4.7 3.2-4.7 3.2-4.6 3.2-4.6" stroke="#2C7F35" stroke-opacity=".7" stroke-width=".5" fill="none"/><path class="Latin-America_0-border" stroke-linecap="round" d="M75.1 469.6l32.1-4.2 32.1-3.2 32-3 32.1-1.5 32.1-2.6 32.1-5.2 32.1-7.2 32.1-6.9 32.1-7.3 32-8.1 32.1-10.8 32.1-12.9 32.1-13.6 3.2-2.9 3.2-2.8 3.2-2.8 3.2-2.8 3.2-2.9 3.3-3 3.2-3 3.2-3.2 3.2-3.2 3.2-3.3 3.2-3.4 3.2-3.5 3.2-3.7 3.2-3.7 3.2-4 3.2-4.1 3.3-4.2 3.2-4.4 3.2-4.4 3.2-4.5 3.2-4.5 3.2-4.6 3.2-4.6 3.2-4.5 3.2-4.6 3.2-4.5 3.2-4.5 3.2-4.5 3.3-4.6 3.2-4.6 3.2-4.8 3.2-4.8 3.2-4.9 3.2-5.1 3.2-5.2 3.2-5.4 3.2-5.5 3.2-5.6 3.2-5.5 3.2-5.4 3.3-5.2 3.2-5.1 3.2-5 3.2-4.9 3.2-4.8 3.2-4.9 3.2-4.8 3.2-4.8 3.2-4.7 3.2-4.8 3.2-4.7 3.3-4.8 3.2-4.8 3.2-4.8 3.2-4.8 3.2-4.9 3.2-4.9 3.2-5 3.2-5 3.2-5 3.2-5.1 3.2-5.1 3.2-5 3.3-5.1 3.2-5.1 3.2-5 3.2-5 3.2-5 3.2-5" stroke="#84AB73" stroke-opacity=".7" stroke-width=".5" fill="none"/><path class="Oceania_0-border" stroke-linecap="round" d="M75.1 469.6l32.1-4.2 32.1-3.2 32-3.1 32.1-1.6 32.1-2.5 32.1-5.3 32.1-7.2 32.1-7 32.1-7.4 32-8.1 32.1-10.9 32.1-13 32.1-13.8 3.2-2.9 3.2-2.8 3.2-2.8 3.2-2.9 3.2-2.9 3.3-3 3.2-3 3.2-3.2 3.2-3.2 3.2-3.4 3.2-3.4 3.2-3.5 3.2-3.7 3.2-3.8 3.2-4 3.2-4.1 3.3-4.2 3.2-4.4 3.2-4.5 3.2-4.5 3.2-4.6 3.2-4.5 3.2-4.6 3.2-4.6 3.2-4.6 3.2-4.5 3.2-4.5 3.2-4.6 3.3-4.5 3.2-4.7 3.2-4.8 3.2-4.8 3.2-5 3.2-5.1 3.2-5.2 3.2-5.4 3.2-5.6 3.2-5.6 3.2-5.5 3.2-5.5 3.3-5.2 3.2-5.1 3.2-5 3.2-4.9 3.2-4.9 3.2-4.9 3.2-4.8 3.2-4.8 3.2-4.8 3.2-4.8 3.2-4.8 3.3-4.7 3.2-4.8 3.2-4.9 3.2-4.8 3.2-5 3.2-4.9 3.2-5 3.2-5.1 3.2-5.1 3.2-5 3.2-5.2 3.2-5.1 3.3-5.1 3.2-5.1L704 85l3.2-5 3.2-5 3.2-5" stroke="#8B459C" stroke-opacity=".7" stroke-width=".5" fill="none"/></g></g></g><g class="SourcesFooter" fill="#777"><g class="clickable" fill="#777"><text font-size="12.6" x="15" y="581.6"><tspan x="15" y="581.58">Source: HYDE (2016) &amp; UN (2019)</tspan></text></g><text font-size="12.6" x="528.2" y="581.6"><tspan x="528.19" y="581.58"><a target="_blank" href="https://ourworldindata.org/world-population-growth/" fill="#777">OurWorldInData.org/world-population-growth/</a> • <a class="cclogo" href="http://creativecommons.org/licenses/by/4.0/deed.en_US" target="_blank" fill="#777">CC BY</a></tspan></text></g></svg>